o riverbed
v -4.927902 -1.800000 -40.000000
v 3.022468 -1.800000 -39.500000
v 3.072098 -1.800000 -40.000000
v -4.927902 -1.800000 -40.000000
v -4.977532 -1.800000 -39.500000
v 3.022468 -1.800000 -39.500000
v -4.977532 -1.800000 -39.500000
v 2.973872 -1.800000 -39.000000
v 3.022468 -1.800000 -39.500000
v -4.977532 -1.800000 -39.500000
v -5.026128 -1.800000 -39.000000
v 2.973872 -1.800000 -39.000000
v -5.026128 -1.800000 -39.000000
v 2.926359 -1.800000 -38.500000
v 2.973872 -1.800000 -39.000000
v -5.026128 -1.800000 -39.000000
v -5.073641 -1.800000 -38.500000
v 2.926359 -1.800000 -38.500000
v -5.073641 -1.800000 -38.500000
v 2.879980 -1.800000 -38.000000
v 2.926359 -1.800000 -38.500000
v -5.073641 -1.800000 -38.500000
v -5.120020 -1.800000 -38.000000
v 2.879980 -1.800000 -38.000000
v -5.120020 -1.800000 -38.000000
v 2.834783 -1.800000 -37.500000
v 2.879980 -1.800000 -38.000000
v -5.120020 -1.800000 -38.000000
v -5.165217 -1.800000 -37.500000
v 2.834783 -1.800000 -37.500000
v -5.165217 -1.800000 -37.500000
v 2.790818 -1.800000 -37.000000
v 2.834783 -1.800000 -37.500000
v -5.165217 -1.800000 -37.500000
v -5.209182 -1.800000 -37.000000
v 2.790818 -1.800000 -37.000000
v -5.209182 -1.800000 -37.000000
v 2.748130 -1.800000 -36.500000
v 2.790818 -1.800000 -37.000000
v -5.209182 -1.800000 -37.000000
v -5.251870 -1.800000 -36.500000
v 2.748130 -1.800000 -36.500000
v -5.251870 -1.800000 -36.500000
v 2.706763 -1.800000 -36.000000
v 2.748130 -1.800000 -36.500000
v -5.251870 -1.800000 -36.500000
v -5.293237 -1.800000 -36.000000
v 2.706763 -1.800000 -36.000000
v -5.293237 -1.800000 -36.000000
v 2.666763 -1.800000 -35.500000
v 2.706763 -1.800000 -36.000000
v -5.293237 -1.800000 -36.000000
v -5.333237 -1.800000 -35.500000
v 2.666763 -1.800000 -35.500000
v -5.333237 -1.800000 -35.500000
v 2.628171 -1.800000 -35.000000
v 2.666763 -1.800000 -35.500000
v -5.333237 -1.800000 -35.500000
v -5.371829 -1.800000 -35.000000
v 2.628171 -1.800000 -35.000000
v -5.371829 -1.800000 -35.000000
v 2.591027 -1.800000 -34.500000
v 2.628171 -1.800000 -35.000000
v -5.371829 -1.800000 -35.000000
v -5.408973 -1.800000 -34.500000
v 2.591027 -1.800000 -34.500000
v -5.408973 -1.800000 -34.500000
v 2.555372 -1.800000 -34.000000
v 2.591027 -1.800000 -34.500000
v -5.408973 -1.800000 -34.500000
v -5.444628 -1.800000 -34.000000
v 2.555372 -1.800000 -34.000000
v -5.444628 -1.800000 -34.000000
v 2.521243 -1.800000 -33.500000
v 2.555372 -1.800000 -34.000000
v -5.444628 -1.800000 -34.000000
v -5.478757 -1.800000 -33.500000
v 2.521243 -1.800000 -33.500000
v -5.478757 -1.800000 -33.500000
v 2.488675 -1.800000 -33.000000
v 2.521243 -1.800000 -33.500000
v -5.478757 -1.800000 -33.500000
v -5.511325 -1.800000 -33.000000
v 2.488675 -1.800000 -33.000000
v -5.511325 -1.800000 -33.000000
v 2.457703 -1.800000 -32.500000
v 2.488675 -1.800000 -33.000000
v -5.511325 -1.800000 -33.000000
v -5.542297 -1.800000 -32.500000
v 2.457703 -1.800000 -32.500000
v -5.542297 -1.800000 -32.500000
v 2.428361 -1.800000 -32.000000
v 2.457703 -1.800000 -32.500000
v -5.542297 -1.800000 -32.500000
v -5.571639 -1.800000 -32.000000
v 2.428361 -1.800000 -32.000000
v -5.571639 -1.800000 -32.000000
v 2.400678 -1.800000 -31.500000
v 2.428361 -1.800000 -32.000000
v -5.571639 -1.800000 -32.000000
v -5.599322 -1.800000 -31.500000
v 2.400678 -1.800000 -31.500000
v -5.599322 -1.800000 -31.500000
v 2.374684 -1.800000 -31.000000
v 2.400678 -1.800000 -31.500000
v -5.599322 -1.800000 -31.500000
v -5.625316 -1.800000 -31.000000
v 2.374684 -1.800000 -31.000000
v -5.625316 -1.800000 -31.000000
v 2.350407 -1.800000 -30.500000
v 2.374684 -1.800000 -31.000000
v -5.625316 -1.800000 -31.000000
v -5.649593 -1.800000 -30.500000
v 2.350407 -1.800000 -30.500000
v -5.649593 -1.800000 -30.500000
v 2.327873 -1.800000 -30.000000
v 2.350407 -1.800000 -30.500000
v -5.649593 -1.800000 -30.500000
v -5.672127 -1.800000 -30.000000
v 2.327873 -1.800000 -30.000000
v -5.672127 -1.800000 -30.000000
v 2.307104 -1.800000 -29.500000
v 2.327873 -1.800000 -30.000000
v -5.672127 -1.800000 -30.000000
v -5.692896 -1.800000 -29.500000
v 2.307104 -1.800000 -29.500000
v -5.692896 -1.800000 -29.500000
v 2.288123 -1.800000 -29.000000
v 2.307104 -1.800000 -29.500000
v -5.692896 -1.800000 -29.500000
v -5.711877 -1.800000 -29.000000
v 2.288123 -1.800000 -29.000000
v -5.711877 -1.800000 -29.000000
v 2.270950 -1.800000 -28.500000
v 2.288123 -1.800000 -29.000000
v -5.711877 -1.800000 -29.000000
v -5.729050 -1.800000 -28.500000
v 2.270950 -1.800000 -28.500000
v -5.729050 -1.800000 -28.500000
v 2.255604 -1.800000 -28.000000
v 2.270950 -1.800000 -28.500000
v -5.729050 -1.800000 -28.500000
v -5.744396 -1.800000 -28.000000
v 2.255604 -1.800000 -28.000000
v -5.744396 -1.800000 -28.000000
v 2.242099 -1.800000 -27.500000
v 2.255604 -1.800000 -28.000000
v -5.744396 -1.800000 -28.000000
v -5.757901 -1.800000 -27.500000
v 2.242099 -1.800000 -27.500000
v -5.757901 -1.800000 -27.500000
v 2.230452 -1.800000 -27.000000
v 2.242099 -1.800000 -27.500000
v -5.757901 -1.800000 -27.500000
v -5.769548 -1.800000 -27.000000
v 2.230452 -1.800000 -27.000000
v -5.769548 -1.800000 -27.000000
v 2.220673 -1.800000 -26.500000
v 2.230452 -1.800000 -27.000000
v -5.769548 -1.800000 -27.000000
v -5.779327 -1.800000 -26.500000
v 2.220673 -1.800000 -26.500000
v -5.779327 -1.800000 -26.500000
v 2.212773 -1.800000 -26.000000
v 2.220673 -1.800000 -26.500000
v -5.779327 -1.800000 -26.500000
v -5.787227 -1.800000 -26.000000
v 2.212773 -1.800000 -26.000000
v -5.787227 -1.800000 -26.000000
v 2.206762 -1.800000 -25.500000
v 2.212773 -1.800000 -26.000000
v -5.787227 -1.800000 -26.000000
v -5.793238 -1.800000 -25.500000
v 2.206762 -1.800000 -25.500000
v -5.793238 -1.800000 -25.500000
v 2.202644 -1.800000 -25.000000
v 2.206762 -1.800000 -25.500000
v -5.793238 -1.800000 -25.500000
v -5.797356 -1.800000 -25.000000
v 2.202644 -1.800000 -25.000000
v -5.797356 -1.800000 -25.000000
v 2.200424 -1.800000 -24.500000
v 2.202644 -1.800000 -25.000000
v -5.797356 -1.800000 -25.000000
v -5.799576 -1.800000 -24.500000
v 2.200424 -1.800000 -24.500000
v -5.799576 -1.800000 -24.500000
v 2.200105 -1.800000 -24.000000
v 2.200424 -1.800000 -24.500000
v -5.799576 -1.800000 -24.500000
v -5.799895 -1.800000 -24.000000
v 2.200105 -1.800000 -24.000000
v -5.799895 -1.800000 -24.000000
v 2.201687 -1.800000 -23.500000
v 2.200105 -1.800000 -24.000000
v -5.799895 -1.800000 -24.000000
v -5.798313 -1.800000 -23.500000
v 2.201687 -1.800000 -23.500000
v -5.798313 -1.800000 -23.500000
v 2.205168 -1.800000 -23.000000
v 2.201687 -1.800000 -23.500000
v -5.798313 -1.800000 -23.500000
v -5.794832 -1.800000 -23.000000
v 2.205168 -1.800000 -23.000000
v -5.794832 -1.800000 -23.000000
v 2.210545 -1.800000 -22.500000
v 2.205168 -1.800000 -23.000000
v -5.794832 -1.800000 -23.000000
v -5.789455 -1.800000 -22.500000
v 2.210545 -1.800000 -22.500000
v -5.789455 -1.800000 -22.500000
v 2.217812 -1.800000 -22.000000
v 2.210545 -1.800000 -22.500000
v -5.789455 -1.800000 -22.500000
v -5.782188 -1.800000 -22.000000
v 2.217812 -1.800000 -22.000000
v -5.782188 -1.800000 -22.000000
v 2.226961 -1.800000 -21.500000
v 2.217812 -1.800000 -22.000000
v -5.782188 -1.800000 -22.000000
v -5.773039 -1.800000 -21.500000
v 2.226961 -1.800000 -21.500000
v -5.773039 -1.800000 -21.500000
v 2.237983 -1.800000 -21.000000
v 2.226961 -1.800000 -21.500000
v -5.773039 -1.800000 -21.500000
v -5.762017 -1.800000 -21.000000
v 2.237983 -1.800000 -21.000000
v -5.762017 -1.800000 -21.000000
v 2.250865 -1.800000 -20.500000
v 2.237983 -1.800000 -21.000000
v -5.762017 -1.800000 -21.000000
v -5.749135 -1.800000 -20.500000
v 2.250865 -1.800000 -20.500000
v -5.749135 -1.800000 -20.500000
v 2.265595 -1.800000 -20.000000
v 2.250865 -1.800000 -20.500000
v -5.749135 -1.800000 -20.500000
v -5.734405 -1.800000 -20.000000
v 2.265595 -1.800000 -20.000000
v -5.734405 -1.800000 -20.000000
v 2.282157 -1.800000 -19.500000
v 2.265595 -1.800000 -20.000000
v -5.734405 -1.800000 -20.000000
v -5.717843 -1.800000 -19.500000
v 2.282157 -1.800000 -19.500000
v -5.717843 -1.800000 -19.500000
v 2.300533 -1.800000 -19.000000
v 2.282157 -1.800000 -19.500000
v -5.717843 -1.800000 -19.500000
v -5.699467 -1.800000 -19.000000
v 2.300533 -1.800000 -19.000000
v -5.699467 -1.800000 -19.000000
v 2.320704 -1.800000 -18.500000
v 2.300533 -1.800000 -19.000000
v -5.699467 -1.800000 -19.000000
v -5.679296 -1.800000 -18.500000
v 2.320704 -1.800000 -18.500000
v -5.679296 -1.800000 -18.500000
v 2.342649 -1.800000 -18.000000
v 2.320704 -1.800000 -18.500000
v -5.679296 -1.800000 -18.500000
v -5.657351 -1.800000 -18.000000
v 2.342649 -1.800000 -18.000000
v -5.657351 -1.800000 -18.000000
v 2.366344 -1.800000 -17.500000
v 2.342649 -1.800000 -18.000000
v -5.657351 -1.800000 -18.000000
v -5.633656 -1.800000 -17.500000
v 2.366344 -1.800000 -17.500000
v -5.633656 -1.800000 -17.500000
v 2.391764 -1.800000 -17.000000
v 2.366344 -1.800000 -17.500000
v -5.633656 -1.800000 -17.500000
v -5.608236 -1.800000 -17.000000
v 2.391764 -1.800000 -17.000000
v -5.608236 -1.800000 -17.000000
v 2.418883 -1.800000 -16.500000
v 2.391764 -1.800000 -17.000000
v -5.608236 -1.800000 -17.000000
v -5.581117 -1.800000 -16.500000
v 2.418883 -1.800000 -16.500000
v -5.581117 -1.800000 -16.500000
v 2.447672 -1.800000 -16.000000
v 2.418883 -1.800000 -16.500000
v -5.581117 -1.800000 -16.500000
v -5.552328 -1.800000 -16.000000
v 2.447672 -1.800000 -16.000000
v -5.552328 -1.800000 -16.000000
v 2.478101 -1.800000 -15.500000
v 2.447672 -1.800000 -16.000000
v -5.552328 -1.800000 -16.000000
v -5.521899 -1.800000 -15.500000
v 2.478101 -1.800000 -15.500000
v -5.521899 -1.800000 -15.500000
v 2.510137 -1.800000 -15.000000
v 2.478101 -1.800000 -15.500000
v -5.521899 -1.800000 -15.500000
v -5.489863 -1.800000 -15.000000
v 2.510137 -1.800000 -15.000000
v -5.489863 -1.800000 -15.000000
v 2.543746 -1.800000 -14.500000
v 2.510137 -1.800000 -15.000000
v -5.489863 -1.800000 -15.000000
v -5.456254 -1.800000 -14.500000
v 2.543746 -1.800000 -14.500000
v -5.456254 -1.800000 -14.500000
v 2.578893 -1.800000 -14.000000
v 2.543746 -1.800000 -14.500000
v -5.456254 -1.800000 -14.500000
v -5.421107 -1.800000 -14.000000
v 2.578893 -1.800000 -14.000000
v -5.421107 -1.800000 -14.000000
v 2.615542 -1.800000 -13.500000
v 2.578893 -1.800000 -14.000000
v -5.421107 -1.800000 -14.000000
v -5.384458 -1.800000 -13.500000
v 2.615542 -1.800000 -13.500000
v -5.384458 -1.800000 -13.500000
v 2.653652 -1.800000 -13.000000
v 2.615542 -1.800000 -13.500000
v -5.384458 -1.800000 -13.500000
v -5.346348 -1.800000 -13.000000
v 2.653652 -1.800000 -13.000000
v -5.346348 -1.800000 -13.000000
v 2.693184 -1.800000 -12.500000
v 2.653652 -1.800000 -13.000000
v -5.346348 -1.800000 -13.000000
v -5.306816 -1.800000 -12.500000
v 2.693184 -1.800000 -12.500000
v -5.306816 -1.800000 -12.500000
v 2.734097 -1.800000 -12.000000
v 2.693184 -1.800000 -12.500000
v -5.306816 -1.800000 -12.500000
v -5.265903 -1.800000 -12.000000
v 2.734097 -1.800000 -12.000000
v -5.265903 -1.800000 -12.000000
v 2.776347 -1.800000 -11.500000
v 2.734097 -1.800000 -12.000000
v -5.265903 -1.800000 -12.000000
v -5.223653 -1.800000 -11.500000
v 2.776347 -1.800000 -11.500000
v -5.223653 -1.800000 -11.500000
v 2.819889 -1.800000 -11.000000
v 2.776347 -1.800000 -11.500000
v -5.223653 -1.800000 -11.500000
v -5.180111 -1.800000 -11.000000
v 2.819889 -1.800000 -11.000000
v -5.180111 -1.800000 -11.000000
v 2.864677 -1.800000 -10.500000
v 2.819889 -1.800000 -11.000000
v -5.180111 -1.800000 -11.000000
v -5.135323 -1.800000 -10.500000
v 2.864677 -1.800000 -10.500000
v -5.135323 -1.800000 -10.500000
v 2.910664 -1.800000 -10.000000
v 2.864677 -1.800000 -10.500000
v -5.135323 -1.800000 -10.500000
v -5.089336 -1.800000 -10.000000
v 2.910664 -1.800000 -10.000000
v -5.089336 -1.800000 -10.000000
v 2.957802 -1.800000 -9.500000
v 2.910664 -1.800000 -10.000000
v -5.089336 -1.800000 -10.000000
v -5.042198 -1.800000 -9.500000
v 2.957802 -1.800000 -9.500000
v -5.042198 -1.800000 -9.500000
v 3.006041 -1.800000 -9.000000
v 2.957802 -1.800000 -9.500000
v -5.042198 -1.800000 -9.500000
v -4.993959 -1.800000 -9.000000
v 3.006041 -1.800000 -9.000000
v -4.993959 -1.800000 -9.000000
v 3.055330 -1.800000 -8.500000
v 3.006041 -1.800000 -9.000000
v -4.993959 -1.800000 -9.000000
v -4.944670 -1.800000 -8.500000
v 3.055330 -1.800000 -8.500000
v -4.944670 -1.800000 -8.500000
v 3.105616 -1.800000 -8.000000
v 3.055330 -1.800000 -8.500000
v -4.944670 -1.800000 -8.500000
v -4.894384 -1.800000 -8.000000
v 3.105616 -1.800000 -8.000000
v -4.894384 -1.800000 -8.000000
v 3.156847 -1.800000 -7.500000
v 3.105616 -1.800000 -8.000000
v -4.894384 -1.800000 -8.000000
v -4.843153 -1.800000 -7.500000
v 3.156847 -1.800000 -7.500000
v -4.843153 -1.800000 -7.500000
v 3.208968 -1.800000 -7.000000
v 3.156847 -1.800000 -7.500000
v -4.843153 -1.800000 -7.500000
v -4.791032 -1.800000 -7.000000
v 3.208968 -1.800000 -7.000000
v -4.791032 -1.800000 -7.000000
v 3.261925 -1.800000 -6.500000
v 3.208968 -1.800000 -7.000000
v -4.791032 -1.800000 -7.000000
v -4.738075 -1.800000 -6.500000
v 3.261925 -1.800000 -6.500000
v -4.738075 -1.800000 -6.500000
v 3.315661 -1.800000 -6.000000
v 3.261925 -1.800000 -6.500000
v -4.738075 -1.800000 -6.500000
v -4.684339 -1.800000 -6.000000
v 3.315661 -1.800000 -6.000000
v -4.684339 -1.800000 -6.000000
v 3.370120 -1.800000 -5.500000
v 3.315661 -1.800000 -6.000000
v -4.684339 -1.800000 -6.000000
v -4.629880 -1.800000 -5.500000
v 3.370120 -1.800000 -5.500000
v -4.629880 -1.800000 -5.500000
v 3.425244 -1.800000 -5.000000
v 3.370120 -1.800000 -5.500000
v -4.629880 -1.800000 -5.500000
v -4.574756 -1.800000 -5.000000
v 3.425244 -1.800000 -5.000000
v -4.574756 -1.800000 -5.000000
v 3.480976 -1.800000 -4.500000
v 3.425244 -1.800000 -5.000000
v -4.574756 -1.800000 -5.000000
v -4.519024 -1.800000 -4.500000
v 3.480976 -1.800000 -4.500000
v -4.519024 -1.800000 -4.500000
v 3.537255 -1.800000 -4.000000
v 3.480976 -1.800000 -4.500000
v -4.519024 -1.800000 -4.500000
v -4.462745 -1.800000 -4.000000
v 3.537255 -1.800000 -4.000000
v -4.462745 -1.800000 -4.000000
v 3.594023 -1.800000 -3.500000
v 3.537255 -1.800000 -4.000000
v -4.462745 -1.800000 -4.000000
v -4.405977 -1.800000 -3.500000
v 3.594023 -1.800000 -3.500000
v -4.405977 -1.800000 -3.500000
v 3.651220 -1.800000 -3.000000
v 3.594023 -1.800000 -3.500000
v -4.405977 -1.800000 -3.500000
v -4.348780 -1.800000 -3.000000
v 3.651220 -1.800000 -3.000000
v -4.348780 -1.800000 -3.000000
v 3.708786 -1.800000 -2.500000
v 3.651220 -1.800000 -3.000000
v -4.348780 -1.800000 -3.000000
v -4.291214 -1.800000 -2.500000
v 3.708786 -1.800000 -2.500000
v -4.291214 -1.800000 -2.500000
v 3.766659 -1.800000 -2.000000
v 3.708786 -1.800000 -2.500000
v -4.291214 -1.800000 -2.500000
v -4.233341 -1.800000 -2.000000
v 3.766659 -1.800000 -2.000000
v -4.233341 -1.800000 -2.000000
v 3.824778 -1.800000 -1.500000
v 3.766659 -1.800000 -2.000000
v -4.233341 -1.800000 -2.000000
v -4.175222 -1.800000 -1.500000
v 3.824778 -1.800000 -1.500000
v -4.175222 -1.800000 -1.500000
v 3.883082 -1.800000 -1.000000
v 3.824778 -1.800000 -1.500000
v -4.175222 -1.800000 -1.500000
v -4.116918 -1.800000 -1.000000
v 3.883082 -1.800000 -1.000000
v -4.116918 -1.800000 -1.000000
v 3.941510 -1.800000 -0.500000
v 3.883082 -1.800000 -1.000000
v -4.116918 -1.800000 -1.000000
v -4.058490 -1.800000 -0.500000
v 3.941510 -1.800000 -0.500000
v -4.058490 -1.800000 -0.500000
v 4.000000 -1.800000 0.000000
v 3.941510 -1.800000 -0.500000
v -4.058490 -1.800000 -0.500000
v -4.000000 -1.800000 0.000000
v 4.000000 -1.800000 0.000000
v -4.000000 -1.800000 0.000000
v 4.058490 -1.800000 0.500000
v 4.000000 -1.800000 0.000000
v -4.000000 -1.800000 0.000000
v -3.941510 -1.800000 0.500000
v 4.058490 -1.800000 0.500000
v -3.941510 -1.800000 0.500000
v 4.116918 -1.800000 1.000000
v 4.058490 -1.800000 0.500000
v -3.941510 -1.800000 0.500000
v -3.883082 -1.800000 1.000000
v 4.116918 -1.800000 1.000000
v -3.883082 -1.800000 1.000000
v 4.175222 -1.800000 1.500000
v 4.116918 -1.800000 1.000000
v -3.883082 -1.800000 1.000000
v -3.824778 -1.800000 1.500000
v 4.175222 -1.800000 1.500000
v -3.824778 -1.800000 1.500000
v 4.233341 -1.800000 2.000000
v 4.175222 -1.800000 1.500000
v -3.824778 -1.800000 1.500000
v -3.766659 -1.800000 2.000000
v 4.233341 -1.800000 2.000000
v -3.766659 -1.800000 2.000000
v 4.291214 -1.800000 2.500000
v 4.233341 -1.800000 2.000000
v -3.766659 -1.800000 2.000000
v -3.708786 -1.800000 2.500000
v 4.291214 -1.800000 2.500000
v -3.708786 -1.800000 2.500000
v 4.348780 -1.800000 3.000000
v 4.291214 -1.800000 2.500000
v -3.708786 -1.800000 2.500000
v -3.651220 -1.800000 3.000000
v 4.348780 -1.800000 3.000000
v -3.651220 -1.800000 3.000000
v 4.405977 -1.800000 3.500000
v 4.348780 -1.800000 3.000000
v -3.651220 -1.800000 3.000000
v -3.594023 -1.800000 3.500000
v 4.405977 -1.800000 3.500000
v -3.594023 -1.800000 3.500000
v 4.462745 -1.800000 4.000000
v 4.405977 -1.800000 3.500000
v -3.594023 -1.800000 3.500000
v -3.537255 -1.800000 4.000000
v 4.462745 -1.800000 4.000000
v -3.537255 -1.800000 4.000000
v 4.519024 -1.800000 4.500000
v 4.462745 -1.800000 4.000000
v -3.537255 -1.800000 4.000000
v -3.480976 -1.800000 4.500000
v 4.519024 -1.800000 4.500000
v -3.480976 -1.800000 4.500000
v 4.574756 -1.800000 5.000000
v 4.519024 -1.800000 4.500000
v -3.480976 -1.800000 4.500000
v -3.425244 -1.800000 5.000000
v 4.574756 -1.800000 5.000000
v -3.425244 -1.800000 5.000000
v 4.629880 -1.800000 5.500000
v 4.574756 -1.800000 5.000000
v -3.425244 -1.800000 5.000000
v -3.370120 -1.800000 5.500000
v 4.629880 -1.800000 5.500000
v -3.370120 -1.800000 5.500000
v 4.684339 -1.800000 6.000000
v 4.629880 -1.800000 5.500000
v -3.370120 -1.800000 5.500000
v -3.315661 -1.800000 6.000000
v 4.684339 -1.800000 6.000000
v -3.315661 -1.800000 6.000000
v 4.738075 -1.800000 6.500000
v 4.684339 -1.800000 6.000000
v -3.315661 -1.800000 6.000000
v -3.261925 -1.800000 6.500000
v 4.738075 -1.800000 6.500000
v -3.261925 -1.800000 6.500000
v 4.791032 -1.800000 7.000000
v 4.738075 -1.800000 6.500000
v -3.261925 -1.800000 6.500000
v -3.208968 -1.800000 7.000000
v 4.791032 -1.800000 7.000000
v -3.208968 -1.800000 7.000000
v 4.843153 -1.800000 7.500000
v 4.791032 -1.800000 7.000000
v -3.208968 -1.800000 7.000000
v -3.156847 -1.800000 7.500000
v 4.843153 -1.800000 7.500000
v -3.156847 -1.800000 7.500000
v 4.894384 -1.800000 8.000000
v 4.843153 -1.800000 7.500000
v -3.156847 -1.800000 7.500000
v -3.105616 -1.800000 8.000000
v 4.894384 -1.800000 8.000000
v -3.105616 -1.800000 8.000000
v 4.944670 -1.800000 8.500000
v 4.894384 -1.800000 8.000000
v -3.105616 -1.800000 8.000000
v -3.055330 -1.800000 8.500000
v 4.944670 -1.800000 8.500000
v -3.055330 -1.800000 8.500000
v 4.993959 -1.800000 9.000000
v 4.944670 -1.800000 8.500000
v -3.055330 -1.800000 8.500000
v -3.006041 -1.800000 9.000000
v 4.993959 -1.800000 9.000000
v -3.006041 -1.800000 9.000000
v 5.042198 -1.800000 9.500000
v 4.993959 -1.800000 9.000000
v -3.006041 -1.800000 9.000000
v -2.957802 -1.800000 9.500000
v 5.042198 -1.800000 9.500000
v -2.957802 -1.800000 9.500000
v 5.089336 -1.800000 10.000000
v 5.042198 -1.800000 9.500000
v -2.957802 -1.800000 9.500000
v -2.910664 -1.800000 10.000000
v 5.089336 -1.800000 10.000000
v -2.910664 -1.800000 10.000000
v 5.135323 -1.800000 10.500000
v 5.089336 -1.800000 10.000000
v -2.910664 -1.800000 10.000000
v -2.864677 -1.800000 10.500000
v 5.135323 -1.800000 10.500000
v -2.864677 -1.800000 10.500000
v 5.180111 -1.800000 11.000000
v 5.135323 -1.800000 10.500000
v -2.864677 -1.800000 10.500000
v -2.819889 -1.800000 11.000000
v 5.180111 -1.800000 11.000000
v -2.819889 -1.800000 11.000000
v 5.223653 -1.800000 11.500000
v 5.180111 -1.800000 11.000000
v -2.819889 -1.800000 11.000000
v -2.776347 -1.800000 11.500000
v 5.223653 -1.800000 11.500000
v -2.776347 -1.800000 11.500000
v 5.265903 -1.800000 12.000000
v 5.223653 -1.800000 11.500000
v -2.776347 -1.800000 11.500000
v -2.734097 -1.800000 12.000000
v 5.265903 -1.800000 12.000000
v -2.734097 -1.800000 12.000000
v 5.306816 -1.800000 12.500000
v 5.265903 -1.800000 12.000000
v -2.734097 -1.800000 12.000000
v -2.693184 -1.800000 12.500000
v 5.306816 -1.800000 12.500000
v -2.693184 -1.800000 12.500000
v 5.346348 -1.800000 13.000000
v 5.306816 -1.800000 12.500000
v -2.693184 -1.800000 12.500000
v -2.653652 -1.800000 13.000000
v 5.346348 -1.800000 13.000000
v -2.653652 -1.800000 13.000000
v 5.384458 -1.800000 13.500000
v 5.346348 -1.800000 13.000000
v -2.653652 -1.800000 13.000000
v -2.615542 -1.800000 13.500000
v 5.384458 -1.800000 13.500000
v -2.615542 -1.800000 13.500000
v 5.421107 -1.800000 14.000000
v 5.384458 -1.800000 13.500000
v -2.615542 -1.800000 13.500000
v -2.578893 -1.800000 14.000000
v 5.421107 -1.800000 14.000000
v -2.578893 -1.800000 14.000000
v 5.456254 -1.800000 14.500000
v 5.421107 -1.800000 14.000000
v -2.578893 -1.800000 14.000000
v -2.543746 -1.800000 14.500000
v 5.456254 -1.800000 14.500000
v -2.543746 -1.800000 14.500000
v 5.489863 -1.800000 15.000000
v 5.456254 -1.800000 14.500000
v -2.543746 -1.800000 14.500000
v -2.510137 -1.800000 15.000000
v 5.489863 -1.800000 15.000000
v -2.510137 -1.800000 15.000000
v 5.521899 -1.800000 15.500000
v 5.489863 -1.800000 15.000000
v -2.510137 -1.800000 15.000000
v -2.478101 -1.800000 15.500000
v 5.521899 -1.800000 15.500000
v -2.478101 -1.800000 15.500000
v 5.552328 -1.800000 16.000000
v 5.521899 -1.800000 15.500000
v -2.478101 -1.800000 15.500000
v -2.447672 -1.800000 16.000000
v 5.552328 -1.800000 16.000000
v -2.447672 -1.800000 16.000000
v 5.581117 -1.800000 16.500000
v 5.552328 -1.800000 16.000000
v -2.447672 -1.800000 16.000000
v -2.418883 -1.800000 16.500000
v 5.581117 -1.800000 16.500000
v -2.418883 -1.800000 16.500000
v 5.608236 -1.800000 17.000000
v 5.581117 -1.800000 16.500000
v -2.418883 -1.800000 16.500000
v -2.391764 -1.800000 17.000000
v 5.608236 -1.800000 17.000000
v -2.391764 -1.800000 17.000000
v 5.633656 -1.800000 17.500000
v 5.608236 -1.800000 17.000000
v -2.391764 -1.800000 17.000000
v -2.366344 -1.800000 17.500000
v 5.633656 -1.800000 17.500000
v -2.366344 -1.800000 17.500000
v 5.657351 -1.800000 18.000000
v 5.633656 -1.800000 17.500000
v -2.366344 -1.800000 17.500000
v -2.342649 -1.800000 18.000000
v 5.657351 -1.800000 18.000000
v -2.342649 -1.800000 18.000000
v 5.679296 -1.800000 18.500000
v 5.657351 -1.800000 18.000000
v -2.342649 -1.800000 18.000000
v -2.320704 -1.800000 18.500000
v 5.679296 -1.800000 18.500000
v -2.320704 -1.800000 18.500000
v 5.699467 -1.800000 19.000000
v 5.679296 -1.800000 18.500000
v -2.320704 -1.800000 18.500000
v -2.300533 -1.800000 19.000000
v 5.699467 -1.800000 19.000000
v -2.300533 -1.800000 19.000000
v 5.717843 -1.800000 19.500000
v 5.699467 -1.800000 19.000000
v -2.300533 -1.800000 19.000000
v -2.282157 -1.800000 19.500000
v 5.717843 -1.800000 19.500000
v -2.282157 -1.800000 19.500000
v 5.734405 -1.800000 20.000000
v 5.717843 -1.800000 19.500000
v -2.282157 -1.800000 19.500000
v -2.265595 -1.800000 20.000000
v 5.734405 -1.800000 20.000000
v -2.265595 -1.800000 20.000000
v 5.749135 -1.800000 20.500000
v 5.734405 -1.800000 20.000000
v -2.265595 -1.800000 20.000000
v -2.250865 -1.800000 20.500000
v 5.749135 -1.800000 20.500000
v -2.250865 -1.800000 20.500000
v 5.762017 -1.800000 21.000000
v 5.749135 -1.800000 20.500000
v -2.250865 -1.800000 20.500000
v -2.237983 -1.800000 21.000000
v 5.762017 -1.800000 21.000000
v -2.237983 -1.800000 21.000000
v 5.773039 -1.800000 21.500000
v 5.762017 -1.800000 21.000000
v -2.237983 -1.800000 21.000000
v -2.226961 -1.800000 21.500000
v 5.773039 -1.800000 21.500000
v -2.226961 -1.800000 21.500000
v 5.782188 -1.800000 22.000000
v 5.773039 -1.800000 21.500000
v -2.226961 -1.800000 21.500000
v -2.217812 -1.800000 22.000000
v 5.782188 -1.800000 22.000000
v -2.217812 -1.800000 22.000000
v 5.789455 -1.800000 22.500000
v 5.782188 -1.800000 22.000000
v -2.217812 -1.800000 22.000000
v -2.210545 -1.800000 22.500000
v 5.789455 -1.800000 22.500000
v -2.210545 -1.800000 22.500000
v 5.794832 -1.800000 23.000000
v 5.789455 -1.800000 22.500000
v -2.210545 -1.800000 22.500000
v -2.205168 -1.800000 23.000000
v 5.794832 -1.800000 23.000000
v -2.205168 -1.800000 23.000000
v 5.798313 -1.800000 23.500000
v 5.794832 -1.800000 23.000000
v -2.205168 -1.800000 23.000000
v -2.201687 -1.800000 23.500000
v 5.798313 -1.800000 23.500000
v -2.201687 -1.800000 23.500000
v 5.799895 -1.800000 24.000000
v 5.798313 -1.800000 23.500000
v -2.201687 -1.800000 23.500000
v -2.200105 -1.800000 24.000000
v 5.799895 -1.800000 24.000000
v -2.200105 -1.800000 24.000000
v 5.799576 -1.800000 24.500000
v 5.799895 -1.800000 24.000000
v -2.200105 -1.800000 24.000000
v -2.200424 -1.800000 24.500000
v 5.799576 -1.800000 24.500000
v -2.200424 -1.800000 24.500000
v 5.797356 -1.800000 25.000000
v 5.799576 -1.800000 24.500000
v -2.200424 -1.800000 24.500000
v -2.202644 -1.800000 25.000000
v 5.797356 -1.800000 25.000000
v -2.202644 -1.800000 25.000000
v 5.793238 -1.800000 25.500000
v 5.797356 -1.800000 25.000000
v -2.202644 -1.800000 25.000000
v -2.206762 -1.800000 25.500000
v 5.793238 -1.800000 25.500000
v -2.206762 -1.800000 25.500000
v 5.787227 -1.800000 26.000000
v 5.793238 -1.800000 25.500000
v -2.206762 -1.800000 25.500000
v -2.212773 -1.800000 26.000000
v 5.787227 -1.800000 26.000000
v -2.212773 -1.800000 26.000000
v 5.779327 -1.800000 26.500000
v 5.787227 -1.800000 26.000000
v -2.212773 -1.800000 26.000000
v -2.220673 -1.800000 26.500000
v 5.779327 -1.800000 26.500000
v -2.220673 -1.800000 26.500000
v 5.769548 -1.800000 27.000000
v 5.779327 -1.800000 26.500000
v -2.220673 -1.800000 26.500000
v -2.230452 -1.800000 27.000000
v 5.769548 -1.800000 27.000000
v -2.230452 -1.800000 27.000000
v 5.757901 -1.800000 27.500000
v 5.769548 -1.800000 27.000000
v -2.230452 -1.800000 27.000000
v -2.242099 -1.800000 27.500000
v 5.757901 -1.800000 27.500000
v -2.242099 -1.800000 27.500000
v 5.744396 -1.800000 28.000000
v 5.757901 -1.800000 27.500000
v -2.242099 -1.800000 27.500000
v -2.255604 -1.800000 28.000000
v 5.744396 -1.800000 28.000000
v -2.255604 -1.800000 28.000000
v 5.729050 -1.800000 28.500000
v 5.744396 -1.800000 28.000000
v -2.255604 -1.800000 28.000000
v -2.270950 -1.800000 28.500000
v 5.729050 -1.800000 28.500000
v -2.270950 -1.800000 28.500000
v 5.711877 -1.800000 29.000000
v 5.729050 -1.800000 28.500000
v -2.270950 -1.800000 28.500000
v -2.288123 -1.800000 29.000000
v 5.711877 -1.800000 29.000000
v -2.288123 -1.800000 29.000000
v 5.692896 -1.800000 29.500000
v 5.711877 -1.800000 29.000000
v -2.288123 -1.800000 29.000000
v -2.307104 -1.800000 29.500000
v 5.692896 -1.800000 29.500000
v -2.307104 -1.800000 29.500000
v 5.672127 -1.800000 30.000000
v 5.692896 -1.800000 29.500000
v -2.307104 -1.800000 29.500000
v -2.327873 -1.800000 30.000000
v 5.672127 -1.800000 30.000000
v -2.327873 -1.800000 30.000000
v 5.649593 -1.800000 30.500000
v 5.672127 -1.800000 30.000000
v -2.327873 -1.800000 30.000000
v -2.350407 -1.800000 30.500000
v 5.649593 -1.800000 30.500000
v -2.350407 -1.800000 30.500000
v 5.625316 -1.800000 31.000000
v 5.649593 -1.800000 30.500000
v -2.350407 -1.800000 30.500000
v -2.374684 -1.800000 31.000000
v 5.625316 -1.800000 31.000000
v -2.374684 -1.800000 31.000000
v 5.599322 -1.800000 31.500000
v 5.625316 -1.800000 31.000000
v -2.374684 -1.800000 31.000000
v -2.400678 -1.800000 31.500000
v 5.599322 -1.800000 31.500000
v -2.400678 -1.800000 31.500000
v 5.571639 -1.800000 32.000000
v 5.599322 -1.800000 31.500000
v -2.400678 -1.800000 31.500000
v -2.428361 -1.800000 32.000000
v 5.571639 -1.800000 32.000000
v -2.428361 -1.800000 32.000000
v 5.542297 -1.800000 32.500000
v 5.571639 -1.800000 32.000000
v -2.428361 -1.800000 32.000000
v -2.457703 -1.800000 32.500000
v 5.542297 -1.800000 32.500000
v -2.457703 -1.800000 32.500000
v 5.511325 -1.800000 33.000000
v 5.542297 -1.800000 32.500000
v -2.457703 -1.800000 32.500000
v -2.488675 -1.800000 33.000000
v 5.511325 -1.800000 33.000000
v -2.488675 -1.800000 33.000000
v 5.478757 -1.800000 33.500000
v 5.511325 -1.800000 33.000000
v -2.488675 -1.800000 33.000000
v -2.521243 -1.800000 33.500000
v 5.478757 -1.800000 33.500000
v -2.521243 -1.800000 33.500000
v 5.444628 -1.800000 34.000000
v 5.478757 -1.800000 33.500000
v -2.521243 -1.800000 33.500000
v -2.555372 -1.800000 34.000000
v 5.444628 -1.800000 34.000000
v -2.555372 -1.800000 34.000000
v 5.408973 -1.800000 34.500000
v 5.444628 -1.800000 34.000000
v -2.555372 -1.800000 34.000000
v -2.591027 -1.800000 34.500000
v 5.408973 -1.800000 34.500000
v -2.591027 -1.800000 34.500000
v 5.371829 -1.800000 35.000000
v 5.408973 -1.800000 34.500000
v -2.591027 -1.800000 34.500000
v -2.628171 -1.800000 35.000000
v 5.371829 -1.800000 35.000000
v -2.628171 -1.800000 35.000000
v 5.333237 -1.800000 35.500000
v 5.371829 -1.800000 35.000000
v -2.628171 -1.800000 35.000000
v -2.666763 -1.800000 35.500000
v 5.333237 -1.800000 35.500000
v -2.666763 -1.800000 35.500000
v 5.293237 -1.800000 36.000000
v 5.333237 -1.800000 35.500000
v -2.666763 -1.800000 35.500000
v -2.706763 -1.800000 36.000000
v 5.293237 -1.800000 36.000000
v -2.706763 -1.800000 36.000000
v 5.251870 -1.800000 36.500000
v 5.293237 -1.800000 36.000000
v -2.706763 -1.800000 36.000000
v -2.748130 -1.800000 36.500000
v 5.251870 -1.800000 36.500000
v -2.748130 -1.800000 36.500000
v 5.209182 -1.800000 37.000000
v 5.251870 -1.800000 36.500000
v -2.748130 -1.800000 36.500000
v -2.790818 -1.800000 37.000000
v 5.209182 -1.800000 37.000000
v -2.790818 -1.800000 37.000000
v 5.165217 -1.800000 37.500000
v 5.209182 -1.800000 37.000000
v -2.790818 -1.800000 37.000000
v -2.834783 -1.800000 37.500000
v 5.165217 -1.800000 37.500000
v -2.834783 -1.800000 37.500000
v 5.120020 -1.800000 38.000000
v 5.165217 -1.800000 37.500000
v -2.834783 -1.800000 37.500000
v -2.879980 -1.800000 38.000000
v 5.120020 -1.800000 38.000000
v -2.879980 -1.800000 38.000000
v 5.073641 -1.800000 38.500000
v 5.120020 -1.800000 38.000000
v -2.879980 -1.800000 38.000000
v -2.926359 -1.800000 38.500000
v 5.073641 -1.800000 38.500000
v -2.926359 -1.800000 38.500000
v 5.026128 -1.800000 39.000000
v 5.073641 -1.800000 38.500000
v -2.926359 -1.800000 38.500000
v -2.973872 -1.800000 39.000000
v 5.026128 -1.800000 39.000000
v -2.973872 -1.800000 39.000000
v 4.977532 -1.800000 39.500000
v 5.026128 -1.800000 39.000000
v -2.973872 -1.800000 39.000000
v -3.022468 -1.800000 39.500000
v 4.977532 -1.800000 39.500000
v -3.022468 -1.800000 39.500000
v 4.927902 -1.800000 40.000000
v 4.977532 -1.800000 39.500000
v -3.022468 -1.800000 39.500000
v -3.072098 -1.800000 40.000000
v 4.927902 -1.800000 40.000000
f 1 2 3
f 4 5 6
f 7 8 9
f 10 11 12
f 13 14 15
f 16 17 18
f 19 20 21
f 22 23 24
f 25 26 27
f 28 29 30
f 31 32 33
f 34 35 36
f 37 38 39
f 40 41 42
f 43 44 45
f 46 47 48
f 49 50 51
f 52 53 54
f 55 56 57
f 58 59 60
f 61 62 63
f 64 65 66
f 67 68 69
f 70 71 72
f 73 74 75
f 76 77 78
f 79 80 81
f 82 83 84
f 85 86 87
f 88 89 90
f 91 92 93
f 94 95 96
f 97 98 99
f 100 101 102
f 103 104 105
f 106 107 108
f 109 110 111
f 112 113 114
f 115 116 117
f 118 119 120
f 121 122 123
f 124 125 126
f 127 128 129
f 130 131 132
f 133 134 135
f 136 137 138
f 139 140 141
f 142 143 144
f 145 146 147
f 148 149 150
f 151 152 153
f 154 155 156
f 157 158 159
f 160 161 162
f 163 164 165
f 166 167 168
f 169 170 171
f 172 173 174
f 175 176 177
f 178 179 180
f 181 182 183
f 184 185 186
f 187 188 189
f 190 191 192
f 193 194 195
f 196 197 198
f 199 200 201
f 202 203 204
f 205 206 207
f 208 209 210
f 211 212 213
f 214 215 216
f 217 218 219
f 220 221 222
f 223 224 225
f 226 227 228
f 229 230 231
f 232 233 234
f 235 236 237
f 238 239 240
f 241 242 243
f 244 245 246
f 247 248 249
f 250 251 252
f 253 254 255
f 256 257 258
f 259 260 261
f 262 263 264
f 265 266 267
f 268 269 270
f 271 272 273
f 274 275 276
f 277 278 279
f 280 281 282
f 283 284 285
f 286 287 288
f 289 290 291
f 292 293 294
f 295 296 297
f 298 299 300
f 301 302 303
f 304 305 306
f 307 308 309
f 310 311 312
f 313 314 315
f 316 317 318
f 319 320 321
f 322 323 324
f 325 326 327
f 328 329 330
f 331 332 333
f 334 335 336
f 337 338 339
f 340 341 342
f 343 344 345
f 346 347 348
f 349 350 351
f 352 353 354
f 355 356 357
f 358 359 360
f 361 362 363
f 364 365 366
f 367 368 369
f 370 371 372
f 373 374 375
f 376 377 378
f 379 380 381
f 382 383 384
f 385 386 387
f 388 389 390
f 391 392 393
f 394 395 396
f 397 398 399
f 400 401 402
f 403 404 405
f 406 407 408
f 409 410 411
f 412 413 414
f 415 416 417
f 418 419 420
f 421 422 423
f 424 425 426
f 427 428 429
f 430 431 432
f 433 434 435
f 436 437 438
f 439 440 441
f 442 443 444
f 445 446 447
f 448 449 450
f 451 452 453
f 454 455 456
f 457 458 459
f 460 461 462
f 463 464 465
f 466 467 468
f 469 470 471
f 472 473 474
f 475 476 477
f 478 479 480
f 481 482 483
f 484 485 486
f 487 488 489
f 490 491 492
f 493 494 495
f 496 497 498
f 499 500 501
f 502 503 504
f 505 506 507
f 508 509 510
f 511 512 513
f 514 515 516
f 517 518 519
f 520 521 522
f 523 524 525
f 526 527 528
f 529 530 531
f 532 533 534
f 535 536 537
f 538 539 540
f 541 542 543
f 544 545 546
f 547 548 549
f 550 551 552
f 553 554 555
f 556 557 558
f 559 560 561
f 562 563 564
f 565 566 567
f 568 569 570
f 571 572 573
f 574 575 576
f 577 578 579
f 580 581 582
f 583 584 585
f 586 587 588
f 589 590 591
f 592 593 594
f 595 596 597
f 598 599 600
f 601 602 603
f 604 605 606
f 607 608 609
f 610 611 612
f 613 614 615
f 616 617 618
f 619 620 621
f 622 623 624
f 625 626 627
f 628 629 630
f 631 632 633
f 634 635 636
f 637 638 639
f 640 641 642
f 643 644 645
f 646 647 648
f 649 650 651
f 652 653 654
f 655 656 657
f 658 659 660
f 661 662 663
f 664 665 666
f 667 668 669
f 670 671 672
f 673 674 675
f 676 677 678
f 679 680 681
f 682 683 684
f 685 686 687
f 688 689 690
f 691 692 693
f 694 695 696
f 697 698 699
f 700 701 702
f 703 704 705
f 706 707 708
f 709 710 711
f 712 713 714
f 715 716 717
f 718 719 720
f 721 722 723
f 724 725 726
f 727 728 729
f 730 731 732
f 733 734 735
f 736 737 738
f 739 740 741
f 742 743 744
f 745 746 747
f 748 749 750
f 751 752 753
f 754 755 756
f 757 758 759
f 760 761 762
f 763 764 765
f 766 767 768
f 769 770 771
f 772 773 774
f 775 776 777
f 778 779 780
f 781 782 783
f 784 785 786
f 787 788 789
f 790 791 792
f 793 794 795
f 796 797 798
f 799 800 801
f 802 803 804
f 805 806 807
f 808 809 810
f 811 812 813
f 814 815 816
f 817 818 819
f 820 821 822
f 823 824 825
f 826 827 828
f 829 830 831
f 832 833 834
f 835 836 837
f 838 839 840
f 841 842 843
f 844 845 846
f 847 848 849
f 850 851 852
f 853 854 855
f 856 857 858
f 859 860 861
f 862 863 864
f 865 866 867
f 868 869 870
f 871 872 873
f 874 875 876
f 877 878 879
f 880 881 882
f 883 884 885
f 886 887 888
f 889 890 891
f 892 893 894
f 895 896 897
f 898 899 900
f 901 902 903
f 904 905 906
f 907 908 909
f 910 911 912
f 913 914 915
f 916 917 918
f 919 920 921
f 922 923 924
f 925 926 927
f 928 929 930
f 931 932 933
f 934 935 936
f 937 938 939
f 940 941 942
f 943 944 945
f 946 947 948
f 949 950 951
f 952 953 954
f 955 956 957
f 958 959 960
