o water
v -4.927902 -0.120000 -40.000000
v 3.022468 -0.120000 -39.500000
v 3.072098 -0.120000 -40.000000
v -4.927902 -0.120000 -40.000000
v -4.977532 -0.120000 -39.500000
v 3.022468 -0.120000 -39.500000
v -4.977532 -0.120000 -39.500000
v 2.973872 -0.120000 -39.000000
v 3.022468 -0.120000 -39.500000
v -4.977532 -0.120000 -39.500000
v -5.026128 -0.120000 -39.000000
v 2.973872 -0.120000 -39.000000
v -5.026128 -0.120000 -39.000000
v 2.926359 -0.120000 -38.500000
v 2.973872 -0.120000 -39.000000
v -5.026128 -0.120000 -39.000000
v -5.073641 -0.120000 -38.500000
v 2.926359 -0.120000 -38.500000
v -5.073641 -0.120000 -38.500000
v 2.879980 -0.120000 -38.000000
v 2.926359 -0.120000 -38.500000
v -5.073641 -0.120000 -38.500000
v -5.120020 -0.120000 -38.000000
v 2.879980 -0.120000 -38.000000
v -5.120020 -0.120000 -38.000000
v 2.834783 -0.120000 -37.500000
v 2.879980 -0.120000 -38.000000
v -5.120020 -0.120000 -38.000000
v -5.165217 -0.120000 -37.500000
v 2.834783 -0.120000 -37.500000
v -5.165217 -0.120000 -37.500000
v 2.790818 -0.120000 -37.000000
v 2.834783 -0.120000 -37.500000
v -5.165217 -0.120000 -37.500000
v -5.209182 -0.120000 -37.000000
v 2.790818 -0.120000 -37.000000
v -5.209182 -0.120000 -37.000000
v 2.748130 -0.120000 -36.500000
v 2.790818 -0.120000 -37.000000
v -5.209182 -0.120000 -37.000000
v -5.251870 -0.120000 -36.500000
v 2.748130 -0.120000 -36.500000
v -5.251870 -0.120000 -36.500000
v 2.706763 -0.120000 -36.000000
v 2.748130 -0.120000 -36.500000
v -5.251870 -0.120000 -36.500000
v -5.293237 -0.120000 -36.000000
v 2.706763 -0.120000 -36.000000
v -5.293237 -0.120000 -36.000000
v 2.666763 -0.120000 -35.500000
v 2.706763 -0.120000 -36.000000
v -5.293237 -0.120000 -36.000000
v -5.333237 -0.120000 -35.500000
v 2.666763 -0.120000 -35.500000
v -5.333237 -0.120000 -35.500000
v 2.628171 -0.120000 -35.000000
v 2.666763 -0.120000 -35.500000
v -5.333237 -0.120000 -35.500000
v -5.371829 -0.120000 -35.000000
v 2.628171 -0.120000 -35.000000
v -5.371829 -0.120000 -35.000000
v 2.591027 -0.120000 -34.500000
v 2.628171 -0.120000 -35.000000
v -5.371829 -0.120000 -35.000000
v -5.408973 -0.120000 -34.500000
v 2.591027 -0.120000 -34.500000
v -5.408973 -0.120000 -34.500000
v 2.555372 -0.120000 -34.000000
v 2.591027 -0.120000 -34.500000
v -5.408973 -0.120000 -34.500000
v -5.444628 -0.120000 -34.000000
v 2.555372 -0.120000 -34.000000
v -5.444628 -0.120000 -34.000000
v 2.521243 -0.120000 -33.500000
v 2.555372 -0.120000 -34.000000
v -5.444628 -0.120000 -34.000000
v -5.478757 -0.120000 -33.500000
v 2.521243 -0.120000 -33.500000
v -5.478757 -0.120000 -33.500000
v 2.488675 -0.120000 -33.000000
v 2.521243 -0.120000 -33.500000
v -5.478757 -0.120000 -33.500000
v -5.511325 -0.120000 -33.000000
v 2.488675 -0.120000 -33.000000
v -5.511325 -0.120000 -33.000000
v 2.457703 -0.120000 -32.500000
v 2.488675 -0.120000 -33.000000
v -5.511325 -0.120000 -33.000000
v -5.542297 -0.120000 -32.500000
v 2.457703 -0.120000 -32.500000
v -5.542297 -0.120000 -32.500000
v 2.428361 -0.120000 -32.000000
v 2.457703 -0.120000 -32.500000
v -5.542297 -0.120000 -32.500000
v -5.571639 -0.120000 -32.000000
v 2.428361 -0.120000 -32.000000
v -5.571639 -0.120000 -32.000000
v 2.400678 -0.120000 -31.500000
v 2.428361 -0.120000 -32.000000
v -5.571639 -0.120000 -32.000000
v -5.599322 -0.120000 -31.500000
v 2.400678 -0.120000 -31.500000
v -5.599322 -0.120000 -31.500000
v 2.374684 -0.120000 -31.000000
v 2.400678 -0.120000 -31.500000
v -5.599322 -0.120000 -31.500000
v -5.625316 -0.120000 -31.000000
v 2.374684 -0.120000 -31.000000
v -5.625316 -0.120000 -31.000000
v 2.350407 -0.120000 -30.500000
v 2.374684 -0.120000 -31.000000
v -5.625316 -0.120000 -31.000000
v -5.649593 -0.120000 -30.500000
v 2.350407 -0.120000 -30.500000
v -5.649593 -0.120000 -30.500000
v 2.327873 -0.120000 -30.000000
v 2.350407 -0.120000 -30.500000
v -5.649593 -0.120000 -30.500000
v -5.672127 -0.120000 -30.000000
v 2.327873 -0.120000 -30.000000
v -5.672127 -0.120000 -30.000000
v 2.307104 -0.120000 -29.500000
v 2.327873 -0.120000 -30.000000
v -5.672127 -0.120000 -30.000000
v -5.692896 -0.120000 -29.500000
v 2.307104 -0.120000 -29.500000
v -5.692896 -0.120000 -29.500000
v 2.288123 -0.120000 -29.000000
v 2.307104 -0.120000 -29.500000
v -5.692896 -0.120000 -29.500000
v -5.711877 -0.120000 -29.000000
v 2.288123 -0.120000 -29.000000
v -5.711877 -0.120000 -29.000000
v 2.270950 -0.120000 -28.500000
v 2.288123 -0.120000 -29.000000
v -5.711877 -0.120000 -29.000000
v -5.729050 -0.120000 -28.500000
v 2.270950 -0.120000 -28.500000
v -5.729050 -0.120000 -28.500000
v 2.255604 -0.120000 -28.000000
v 2.270950 -0.120000 -28.500000
v -5.729050 -0.120000 -28.500000
v -5.744396 -0.120000 -28.000000
v 2.255604 -0.120000 -28.000000
v -5.744396 -0.120000 -28.000000
v 2.242099 -0.120000 -27.500000
v 2.255604 -0.120000 -28.000000
v -5.744396 -0.120000 -28.000000
v -5.757901 -0.120000 -27.500000
v 2.242099 -0.120000 -27.500000
v -5.757901 -0.120000 -27.500000
v 2.230452 -0.120000 -27.000000
v 2.242099 -0.120000 -27.500000
v -5.757901 -0.120000 -27.500000
v -5.769548 -0.120000 -27.000000
v 2.230452 -0.120000 -27.000000
v -5.769548 -0.120000 -27.000000
v 2.220673 -0.120000 -26.500000
v 2.230452 -0.120000 -27.000000
v -5.769548 -0.120000 -27.000000
v -5.779327 -0.120000 -26.500000
v 2.220673 -0.120000 -26.500000
v -5.779327 -0.120000 -26.500000
v 2.212773 -0.120000 -26.000000
v 2.220673 -0.120000 -26.500000
v -5.779327 -0.120000 -26.500000
v -5.787227 -0.120000 -26.000000
v 2.212773 -0.120000 -26.000000
v -5.787227 -0.120000 -26.000000
v 2.206762 -0.120000 -25.500000
v 2.212773 -0.120000 -26.000000
v -5.787227 -0.120000 -26.000000
v -5.793238 -0.120000 -25.500000
v 2.206762 -0.120000 -25.500000
v -5.793238 -0.120000 -25.500000
v 2.202644 -0.120000 -25.000000
v 2.206762 -0.120000 -25.500000
v -5.793238 -0.120000 -25.500000
v -5.797356 -0.120000 -25.000000
v 2.202644 -0.120000 -25.000000
v -5.797356 -0.120000 -25.000000
v 2.200424 -0.120000 -24.500000
v 2.202644 -0.120000 -25.000000
v -5.797356 -0.120000 -25.000000
v -5.799576 -0.120000 -24.500000
v 2.200424 -0.120000 -24.500000
v -5.799576 -0.120000 -24.500000
v 2.200105 -0.120000 -24.000000
v 2.200424 -0.120000 -24.500000
v -5.799576 -0.120000 -24.500000
v -5.799895 -0.120000 -24.000000
v 2.200105 -0.120000 -24.000000
v -5.799895 -0.120000 -24.000000
v 2.201687 -0.120000 -23.500000
v 2.200105 -0.120000 -24.000000
v -5.799895 -0.120000 -24.000000
v -5.798313 -0.120000 -23.500000
v 2.201687 -0.120000 -23.500000
v -5.798313 -0.120000 -23.500000
v 2.205168 -0.120000 -23.000000
v 2.201687 -0.120000 -23.500000
v -5.798313 -0.120000 -23.500000
v -5.794832 -0.120000 -23.000000
v 2.205168 -0.120000 -23.000000
v -5.794832 -0.120000 -23.000000
v 2.210545 -0.120000 -22.500000
v 2.205168 -0.120000 -23.000000
v -5.794832 -0.120000 -23.000000
v -5.789455 -0.120000 -22.500000
v 2.210545 -0.120000 -22.500000
v -5.789455 -0.120000 -22.500000
v 2.217812 -0.120000 -22.000000
v 2.210545 -0.120000 -22.500000
v -5.789455 -0.120000 -22.500000
v -5.782188 -0.120000 -22.000000
v 2.217812 -0.120000 -22.000000
v -5.782188 -0.120000 -22.000000
v 2.226961 -0.120000 -21.500000
v 2.217812 -0.120000 -22.000000
v -5.782188 -0.120000 -22.000000
v -5.773039 -0.120000 -21.500000
v 2.226961 -0.120000 -21.500000
v -5.773039 -0.120000 -21.500000
v 2.237983 -0.120000 -21.000000
v 2.226961 -0.120000 -21.500000
v -5.773039 -0.120000 -21.500000
v -5.762017 -0.120000 -21.000000
v 2.237983 -0.120000 -21.000000
v -5.762017 -0.120000 -21.000000
v 2.250865 -0.120000 -20.500000
v 2.237983 -0.120000 -21.000000
v -5.762017 -0.120000 -21.000000
v -5.749135 -0.120000 -20.500000
v 2.250865 -0.120000 -20.500000
v -5.749135 -0.120000 -20.500000
v 2.265595 -0.120000 -20.000000
v 2.250865 -0.120000 -20.500000
v -5.749135 -0.120000 -20.500000
v -5.734405 -0.120000 -20.000000
v 2.265595 -0.120000 -20.000000
v -5.734405 -0.120000 -20.000000
v 2.282157 -0.120000 -19.500000
v 2.265595 -0.120000 -20.000000
v -5.734405 -0.120000 -20.000000
v -5.717843 -0.120000 -19.500000
v 2.282157 -0.120000 -19.500000
v -5.717843 -0.120000 -19.500000
v 2.300533 -0.120000 -19.000000
v 2.282157 -0.120000 -19.500000
v -5.717843 -0.120000 -19.500000
v -5.699467 -0.120000 -19.000000
v 2.300533 -0.120000 -19.000000
v -5.699467 -0.120000 -19.000000
v 2.320704 -0.120000 -18.500000
v 2.300533 -0.120000 -19.000000
v -5.699467 -0.120000 -19.000000
v -5.679296 -0.120000 -18.500000
v 2.320704 -0.120000 -18.500000
v -5.679296 -0.120000 -18.500000
v 2.342649 -0.120000 -18.000000
v 2.320704 -0.120000 -18.500000
v -5.679296 -0.120000 -18.500000
v -5.657351 -0.120000 -18.000000
v 2.342649 -0.120000 -18.000000
v -5.657351 -0.120000 -18.000000
v 2.366344 -0.120000 -17.500000
v 2.342649 -0.120000 -18.000000
v -5.657351 -0.120000 -18.000000
v -5.633656 -0.120000 -17.500000
v 2.366344 -0.120000 -17.500000
v -5.633656 -0.120000 -17.500000
v 2.391764 -0.120000 -17.000000
v 2.366344 -0.120000 -17.500000
v -5.633656 -0.120000 -17.500000
v -5.608236 -0.120000 -17.000000
v 2.391764 -0.120000 -17.000000
v -5.608236 -0.120000 -17.000000
v 2.418883 -0.120000 -16.500000
v 2.391764 -0.120000 -17.000000
v -5.608236 -0.120000 -17.000000
v -5.581117 -0.120000 -16.500000
v 2.418883 -0.120000 -16.500000
v -5.581117 -0.120000 -16.500000
v 2.447672 -0.120000 -16.000000
v 2.418883 -0.120000 -16.500000
v -5.581117 -0.120000 -16.500000
v -5.552328 -0.120000 -16.000000
v 2.447672 -0.120000 -16.000000
v -5.552328 -0.120000 -16.000000
v 2.478101 -0.120000 -15.500000
v 2.447672 -0.120000 -16.000000
v -5.552328 -0.120000 -16.000000
v -5.521899 -0.120000 -15.500000
v 2.478101 -0.120000 -15.500000
v -5.521899 -0.120000 -15.500000
v 2.510137 -0.120000 -15.000000
v 2.478101 -0.120000 -15.500000
v -5.521899 -0.120000 -15.500000
v -5.489863 -0.120000 -15.000000
v 2.510137 -0.120000 -15.000000
v -5.489863 -0.120000 -15.000000
v 2.543746 -0.120000 -14.500000
v 2.510137 -0.120000 -15.000000
v -5.489863 -0.120000 -15.000000
v -5.456254 -0.120000 -14.500000
v 2.543746 -0.120000 -14.500000
v -5.456254 -0.120000 -14.500000
v 2.578893 -0.120000 -14.000000
v 2.543746 -0.120000 -14.500000
v -5.456254 -0.120000 -14.500000
v -5.421107 -0.120000 -14.000000
v 2.578893 -0.120000 -14.000000
v -5.421107 -0.120000 -14.000000
v 2.615542 -0.120000 -13.500000
v 2.578893 -0.120000 -14.000000
v -5.421107 -0.120000 -14.000000
v -5.384458 -0.120000 -13.500000
v 2.615542 -0.120000 -13.500000
v -5.384458 -0.120000 -13.500000
v 2.653652 -0.120000 -13.000000
v 2.615542 -0.120000 -13.500000
v -5.384458 -0.120000 -13.500000
v -5.346348 -0.120000 -13.000000
v 2.653652 -0.120000 -13.000000
v -5.346348 -0.120000 -13.000000
v 2.693184 -0.120000 -12.500000
v 2.653652 -0.120000 -13.000000
v -5.346348 -0.120000 -13.000000
v -5.306816 -0.120000 -12.500000
v 2.693184 -0.120000 -12.500000
v -5.306816 -0.120000 -12.500000
v 2.734097 -0.120000 -12.000000
v 2.693184 -0.120000 -12.500000
v -5.306816 -0.120000 -12.500000
v -5.265903 -0.120000 -12.000000
v 2.734097 -0.120000 -12.000000
v -5.265903 -0.120000 -12.000000
v 2.776347 -0.120000 -11.500000
v 2.734097 -0.120000 -12.000000
v -5.265903 -0.120000 -12.000000
v -5.223653 -0.120000 -11.500000
v 2.776347 -0.120000 -11.500000
v -5.223653 -0.120000 -11.500000
v 2.819889 -0.120000 -11.000000
v 2.776347 -0.120000 -11.500000
v -5.223653 -0.120000 -11.500000
v -5.180111 -0.120000 -11.000000
v 2.819889 -0.120000 -11.000000
v -5.180111 -0.120000 -11.000000
v 2.864677 -0.120000 -10.500000
v 2.819889 -0.120000 -11.000000
v -5.180111 -0.120000 -11.000000
v -5.135323 -0.120000 -10.500000
v 2.864677 -0.120000 -10.500000
v -5.135323 -0.120000 -10.500000
v 2.910664 -0.120000 -10.000000
v 2.864677 -0.120000 -10.500000
v -5.135323 -0.120000 -10.500000
v -5.089336 -0.120000 -10.000000
v 2.910664 -0.120000 -10.000000
v -5.089336 -0.120000 -10.000000
v 2.957802 -0.120000 -9.500000
v 2.910664 -0.120000 -10.000000
v -5.089336 -0.120000 -10.000000
v -5.042198 -0.120000 -9.500000
v 2.957802 -0.120000 -9.500000
v -5.042198 -0.120000 -9.500000
v 3.006041 -0.120000 -9.000000
v 2.957802 -0.120000 -9.500000
v -5.042198 -0.120000 -9.500000
v -4.993959 -0.120000 -9.000000
v 3.006041 -0.120000 -9.000000
v -4.993959 -0.120000 -9.000000
v 3.055330 -0.120000 -8.500000
v 3.006041 -0.120000 -9.000000
v -4.993959 -0.120000 -9.000000
v -4.944670 -0.120000 -8.500000
v 3.055330 -0.120000 -8.500000
v -4.944670 -0.120000 -8.500000
v 3.105616 -0.120000 -8.000000
v 3.055330 -0.120000 -8.500000
v -4.944670 -0.120000 -8.500000
v -4.894384 -0.120000 -8.000000
v 3.105616 -0.120000 -8.000000
v -4.894384 -0.120000 -8.000000
v 3.156847 -0.120000 -7.500000
v 3.105616 -0.120000 -8.000000
v -4.894384 -0.120000 -8.000000
v -4.843153 -0.120000 -7.500000
v 3.156847 -0.120000 -7.500000
v -4.843153 -0.120000 -7.500000
v 3.208968 -0.120000 -7.000000
v 3.156847 -0.120000 -7.500000
v -4.843153 -0.120000 -7.500000
v -4.791032 -0.120000 -7.000000
v 3.208968 -0.120000 -7.000000
v -4.791032 -0.120000 -7.000000
v 3.261925 -0.120000 -6.500000
v 3.208968 -0.120000 -7.000000
v -4.791032 -0.120000 -7.000000
v -4.738075 -0.120000 -6.500000
v 3.261925 -0.120000 -6.500000
v -4.738075 -0.120000 -6.500000
v 3.315661 -0.120000 -6.000000
v 3.261925 -0.120000 -6.500000
v -4.738075 -0.120000 -6.500000
v -4.684339 -0.120000 -6.000000
v 3.315661 -0.120000 -6.000000
v -4.684339 -0.120000 -6.000000
v 3.370120 -0.120000 -5.500000
v 3.315661 -0.120000 -6.000000
v -4.684339 -0.120000 -6.000000
v -4.629880 -0.120000 -5.500000
v 3.370120 -0.120000 -5.500000
v -4.629880 -0.120000 -5.500000
v 3.425244 -0.120000 -5.000000
v 3.370120 -0.120000 -5.500000
v -4.629880 -0.120000 -5.500000
v -4.574756 -0.120000 -5.000000
v 3.425244 -0.120000 -5.000000
v -4.574756 -0.120000 -5.000000
v 3.480976 -0.120000 -4.500000
v 3.425244 -0.120000 -5.000000
v -4.574756 -0.120000 -5.000000
v -4.519024 -0.120000 -4.500000
v 3.480976 -0.120000 -4.500000
v -4.519024 -0.120000 -4.500000
v 3.537255 -0.120000 -4.000000
v 3.480976 -0.120000 -4.500000
v -4.519024 -0.120000 -4.500000
v -4.462745 -0.120000 -4.000000
v 3.537255 -0.120000 -4.000000
v -4.462745 -0.120000 -4.000000
v 3.594023 -0.120000 -3.500000
v 3.537255 -0.120000 -4.000000
v -4.462745 -0.120000 -4.000000
v -4.405977 -0.120000 -3.500000
v 3.594023 -0.120000 -3.500000
v -4.405977 -0.120000 -3.500000
v 3.651220 -0.120000 -3.000000
v 3.594023 -0.120000 -3.500000
v -4.405977 -0.120000 -3.500000
v -4.348780 -0.120000 -3.000000
v 3.651220 -0.120000 -3.000000
v -4.348780 -0.120000 -3.000000
v 3.708786 -0.120000 -2.500000
v 3.651220 -0.120000 -3.000000
v -4.348780 -0.120000 -3.000000
v -4.291214 -0.120000 -2.500000
v 3.708786 -0.120000 -2.500000
v -4.291214 -0.120000 -2.500000
v 3.766659 -0.120000 -2.000000
v 3.708786 -0.120000 -2.500000
v -4.291214 -0.120000 -2.500000
v -4.233341 -0.120000 -2.000000
v 3.766659 -0.120000 -2.000000
v -4.233341 -0.120000 -2.000000
v 3.824778 -0.120000 -1.500000
v 3.766659 -0.120000 -2.000000
v -4.233341 -0.120000 -2.000000
v -4.175222 -0.120000 -1.500000
v 3.824778 -0.120000 -1.500000
v -4.175222 -0.120000 -1.500000
v 3.883082 -0.120000 -1.000000
v 3.824778 -0.120000 -1.500000
v -4.175222 -0.120000 -1.500000
v -4.116918 -0.120000 -1.000000
v 3.883082 -0.120000 -1.000000
v -4.116918 -0.120000 -1.000000
v 3.941510 -0.120000 -0.500000
v 3.883082 -0.120000 -1.000000
v -4.116918 -0.120000 -1.000000
v -4.058490 -0.120000 -0.500000
v 3.941510 -0.120000 -0.500000
v -4.058490 -0.120000 -0.500000
v 4.000000 -0.120000 0.000000
v 3.941510 -0.120000 -0.500000
v -4.058490 -0.120000 -0.500000
v -4.000000 -0.120000 0.000000
v 4.000000 -0.120000 0.000000
v -4.000000 -0.120000 0.000000
v 4.058490 -0.120000 0.500000
v 4.000000 -0.120000 0.000000
v -4.000000 -0.120000 0.000000
v -3.941510 -0.120000 0.500000
v 4.058490 -0.120000 0.500000
v -3.941510 -0.120000 0.500000
v 4.116918 -0.120000 1.000000
v 4.058490 -0.120000 0.500000
v -3.941510 -0.120000 0.500000
v -3.883082 -0.120000 1.000000
v 4.116918 -0.120000 1.000000
v -3.883082 -0.120000 1.000000
v 4.175222 -0.120000 1.500000
v 4.116918 -0.120000 1.000000
v -3.883082 -0.120000 1.000000
v -3.824778 -0.120000 1.500000
v 4.175222 -0.120000 1.500000
v -3.824778 -0.120000 1.500000
v 4.233341 -0.120000 2.000000
v 4.175222 -0.120000 1.500000
v -3.824778 -0.120000 1.500000
v -3.766659 -0.120000 2.000000
v 4.233341 -0.120000 2.000000
v -3.766659 -0.120000 2.000000
v 4.291214 -0.120000 2.500000
v 4.233341 -0.120000 2.000000
v -3.766659 -0.120000 2.000000
v -3.708786 -0.120000 2.500000
v 4.291214 -0.120000 2.500000
v -3.708786 -0.120000 2.500000
v 4.348780 -0.120000 3.000000
v 4.291214 -0.120000 2.500000
v -3.708786 -0.120000 2.500000
v -3.651220 -0.120000 3.000000
v 4.348780 -0.120000 3.000000
v -3.651220 -0.120000 3.000000
v 4.405977 -0.120000 3.500000
v 4.348780 -0.120000 3.000000
v -3.651220 -0.120000 3.000000
v -3.594023 -0.120000 3.500000
v 4.405977 -0.120000 3.500000
v -3.594023 -0.120000 3.500000
v 4.462745 -0.120000 4.000000
v 4.405977 -0.120000 3.500000
v -3.594023 -0.120000 3.500000
v -3.537255 -0.120000 4.000000
v 4.462745 -0.120000 4.000000
v -3.537255 -0.120000 4.000000
v 4.519024 -0.120000 4.500000
v 4.462745 -0.120000 4.000000
v -3.537255 -0.120000 4.000000
v -3.480976 -0.120000 4.500000
v 4.519024 -0.120000 4.500000
v -3.480976 -0.120000 4.500000
v 4.574756 -0.120000 5.000000
v 4.519024 -0.120000 4.500000
v -3.480976 -0.120000 4.500000
v -3.425244 -0.120000 5.000000
v 4.574756 -0.120000 5.000000
v -3.425244 -0.120000 5.000000
v 4.629880 -0.120000 5.500000
v 4.574756 -0.120000 5.000000
v -3.425244 -0.120000 5.000000
v -3.370120 -0.120000 5.500000
v 4.629880 -0.120000 5.500000
v -3.370120 -0.120000 5.500000
v 4.684339 -0.120000 6.000000
v 4.629880 -0.120000 5.500000
v -3.370120 -0.120000 5.500000
v -3.315661 -0.120000 6.000000
v 4.684339 -0.120000 6.000000
v -3.315661 -0.120000 6.000000
v 4.738075 -0.120000 6.500000
v 4.684339 -0.120000 6.000000
v -3.315661 -0.120000 6.000000
v -3.261925 -0.120000 6.500000
v 4.738075 -0.120000 6.500000
v -3.261925 -0.120000 6.500000
v 4.791032 -0.120000 7.000000
v 4.738075 -0.120000 6.500000
v -3.261925 -0.120000 6.500000
v -3.208968 -0.120000 7.000000
v 4.791032 -0.120000 7.000000
v -3.208968 -0.120000 7.000000
v 4.843153 -0.120000 7.500000
v 4.791032 -0.120000 7.000000
v -3.208968 -0.120000 7.000000
v -3.156847 -0.120000 7.500000
v 4.843153 -0.120000 7.500000
v -3.156847 -0.120000 7.500000
v 4.894384 -0.120000 8.000000
v 4.843153 -0.120000 7.500000
v -3.156847 -0.120000 7.500000
v -3.105616 -0.120000 8.000000
v 4.894384 -0.120000 8.000000
v -3.105616 -0.120000 8.000000
v 4.944670 -0.120000 8.500000
v 4.894384 -0.120000 8.000000
v -3.105616 -0.120000 8.000000
v -3.055330 -0.120000 8.500000
v 4.944670 -0.120000 8.500000
v -3.055330 -0.120000 8.500000
v 4.993959 -0.120000 9.000000
v 4.944670 -0.120000 8.500000
v -3.055330 -0.120000 8.500000
v -3.006041 -0.120000 9.000000
v 4.993959 -0.120000 9.000000
v -3.006041 -0.120000 9.000000
v 5.042198 -0.120000 9.500000
v 4.993959 -0.120000 9.000000
v -3.006041 -0.120000 9.000000
v -2.957802 -0.120000 9.500000
v 5.042198 -0.120000 9.500000
v -2.957802 -0.120000 9.500000
v 5.089336 -0.120000 10.000000
v 5.042198 -0.120000 9.500000
v -2.957802 -0.120000 9.500000
v -2.910664 -0.120000 10.000000
v 5.089336 -0.120000 10.000000
v -2.910664 -0.120000 10.000000
v 5.135323 -0.120000 10.500000
v 5.089336 -0.120000 10.000000
v -2.910664 -0.120000 10.000000
v -2.864677 -0.120000 10.500000
v 5.135323 -0.120000 10.500000
v -2.864677 -0.120000 10.500000
v 5.180111 -0.120000 11.000000
v 5.135323 -0.120000 10.500000
v -2.864677 -0.120000 10.500000
v -2.819889 -0.120000 11.000000
v 5.180111 -0.120000 11.000000
v -2.819889 -0.120000 11.000000
v 5.223653 -0.120000 11.500000
v 5.180111 -0.120000 11.000000
v -2.819889 -0.120000 11.000000
v -2.776347 -0.120000 11.500000
v 5.223653 -0.120000 11.500000
v -2.776347 -0.120000 11.500000
v 5.265903 -0.120000 12.000000
v 5.223653 -0.120000 11.500000
v -2.776347 -0.120000 11.500000
v -2.734097 -0.120000 12.000000
v 5.265903 -0.120000 12.000000
v -2.734097 -0.120000 12.000000
v 5.306816 -0.120000 12.500000
v 5.265903 -0.120000 12.000000
v -2.734097 -0.120000 12.000000
v -2.693184 -0.120000 12.500000
v 5.306816 -0.120000 12.500000
v -2.693184 -0.120000 12.500000
v 5.346348 -0.120000 13.000000
v 5.306816 -0.120000 12.500000
v -2.693184 -0.120000 12.500000
v -2.653652 -0.120000 13.000000
v 5.346348 -0.120000 13.000000
v -2.653652 -0.120000 13.000000
v 5.384458 -0.120000 13.500000
v 5.346348 -0.120000 13.000000
v -2.653652 -0.120000 13.000000
v -2.615542 -0.120000 13.500000
v 5.384458 -0.120000 13.500000
v -2.615542 -0.120000 13.500000
v 5.421107 -0.120000 14.000000
v 5.384458 -0.120000 13.500000
v -2.615542 -0.120000 13.500000
v -2.578893 -0.120000 14.000000
v 5.421107 -0.120000 14.000000
v -2.578893 -0.120000 14.000000
v 5.456254 -0.120000 14.500000
v 5.421107 -0.120000 14.000000
v -2.578893 -0.120000 14.000000
v -2.543746 -0.120000 14.500000
v 5.456254 -0.120000 14.500000
v -2.543746 -0.120000 14.500000
v 5.489863 -0.120000 15.000000
v 5.456254 -0.120000 14.500000
v -2.543746 -0.120000 14.500000
v -2.510137 -0.120000 15.000000
v 5.489863 -0.120000 15.000000
v -2.510137 -0.120000 15.000000
v 5.521899 -0.120000 15.500000
v 5.489863 -0.120000 15.000000
v -2.510137 -0.120000 15.000000
v -2.478101 -0.120000 15.500000
v 5.521899 -0.120000 15.500000
v -2.478101 -0.120000 15.500000
v 5.552328 -0.120000 16.000000
v 5.521899 -0.120000 15.500000
v -2.478101 -0.120000 15.500000
v -2.447672 -0.120000 16.000000
v 5.552328 -0.120000 16.000000
v -2.447672 -0.120000 16.000000
v 5.581117 -0.120000 16.500000
v 5.552328 -0.120000 16.000000
v -2.447672 -0.120000 16.000000
v -2.418883 -0.120000 16.500000
v 5.581117 -0.120000 16.500000
v -2.418883 -0.120000 16.500000
v 5.608236 -0.120000 17.000000
v 5.581117 -0.120000 16.500000
v -2.418883 -0.120000 16.500000
v -2.391764 -0.120000 17.000000
v 5.608236 -0.120000 17.000000
v -2.391764 -0.120000 17.000000
v 5.633656 -0.120000 17.500000
v 5.608236 -0.120000 17.000000
v -2.391764 -0.120000 17.000000
v -2.366344 -0.120000 17.500000
v 5.633656 -0.120000 17.500000
v -2.366344 -0.120000 17.500000
v 5.657351 -0.120000 18.000000
v 5.633656 -0.120000 17.500000
v -2.366344 -0.120000 17.500000
v -2.342649 -0.120000 18.000000
v 5.657351 -0.120000 18.000000
v -2.342649 -0.120000 18.000000
v 5.679296 -0.120000 18.500000
v 5.657351 -0.120000 18.000000
v -2.342649 -0.120000 18.000000
v -2.320704 -0.120000 18.500000
v 5.679296 -0.120000 18.500000
v -2.320704 -0.120000 18.500000
v 5.699467 -0.120000 19.000000
v 5.679296 -0.120000 18.500000
v -2.320704 -0.120000 18.500000
v -2.300533 -0.120000 19.000000
v 5.699467 -0.120000 19.000000
v -2.300533 -0.120000 19.000000
v 5.717843 -0.120000 19.500000
v 5.699467 -0.120000 19.000000
v -2.300533 -0.120000 19.000000
v -2.282157 -0.120000 19.500000
v 5.717843 -0.120000 19.500000
v -2.282157 -0.120000 19.500000
v 5.734405 -0.120000 20.000000
v 5.717843 -0.120000 19.500000
v -2.282157 -0.120000 19.500000
v -2.265595 -0.120000 20.000000
v 5.734405 -0.120000 20.000000
v -2.265595 -0.120000 20.000000
v 5.749135 -0.120000 20.500000
v 5.734405 -0.120000 20.000000
v -2.265595 -0.120000 20.000000
v -2.250865 -0.120000 20.500000
v 5.749135 -0.120000 20.500000
v -2.250865 -0.120000 20.500000
v 5.762017 -0.120000 21.000000
v 5.749135 -0.120000 20.500000
v -2.250865 -0.120000 20.500000
v -2.237983 -0.120000 21.000000
v 5.762017 -0.120000 21.000000
v -2.237983 -0.120000 21.000000
v 5.773039 -0.120000 21.500000
v 5.762017 -0.120000 21.000000
v -2.237983 -0.120000 21.000000
v -2.226961 -0.120000 21.500000
v 5.773039 -0.120000 21.500000
v -2.226961 -0.120000 21.500000
v 5.782188 -0.120000 22.000000
v 5.773039 -0.120000 21.500000
v -2.226961 -0.120000 21.500000
v -2.217812 -0.120000 22.000000
v 5.782188 -0.120000 22.000000
v -2.217812 -0.120000 22.000000
v 5.789455 -0.120000 22.500000
v 5.782188 -0.120000 22.000000
v -2.217812 -0.120000 22.000000
v -2.210545 -0.120000 22.500000
v 5.789455 -0.120000 22.500000
v -2.210545 -0.120000 22.500000
v 5.794832 -0.120000 23.000000
v 5.789455 -0.120000 22.500000
v -2.210545 -0.120000 22.500000
v -2.205168 -0.120000 23.000000
v 5.794832 -0.120000 23.000000
v -2.205168 -0.120000 23.000000
v 5.798313 -0.120000 23.500000
v 5.794832 -0.120000 23.000000
v -2.205168 -0.120000 23.000000
v -2.201687 -0.120000 23.500000
v 5.798313 -0.120000 23.500000
v -2.201687 -0.120000 23.500000
v 5.799895 -0.120000 24.000000
v 5.798313 -0.120000 23.500000
v -2.201687 -0.120000 23.500000
v -2.200105 -0.120000 24.000000
v 5.799895 -0.120000 24.000000
v -2.200105 -0.120000 24.000000
v 5.799576 -0.120000 24.500000
v 5.799895 -0.120000 24.000000
v -2.200105 -0.120000 24.000000
v -2.200424 -0.120000 24.500000
v 5.799576 -0.120000 24.500000
v -2.200424 -0.120000 24.500000
v 5.797356 -0.120000 25.000000
v 5.799576 -0.120000 24.500000
v -2.200424 -0.120000 24.500000
v -2.202644 -0.120000 25.000000
v 5.797356 -0.120000 25.000000
v -2.202644 -0.120000 25.000000
v 5.793238 -0.120000 25.500000
v 5.797356 -0.120000 25.000000
v -2.202644 -0.120000 25.000000
v -2.206762 -0.120000 25.500000
v 5.793238 -0.120000 25.500000
v -2.206762 -0.120000 25.500000
v 5.787227 -0.120000 26.000000
v 5.793238 -0.120000 25.500000
v -2.206762 -0.120000 25.500000
v -2.212773 -0.120000 26.000000
v 5.787227 -0.120000 26.000000
v -2.212773 -0.120000 26.000000
v 5.779327 -0.120000 26.500000
v 5.787227 -0.120000 26.000000
v -2.212773 -0.120000 26.000000
v -2.220673 -0.120000 26.500000
v 5.779327 -0.120000 26.500000
v -2.220673 -0.120000 26.500000
v 5.769548 -0.120000 27.000000
v 5.779327 -0.120000 26.500000
v -2.220673 -0.120000 26.500000
v -2.230452 -0.120000 27.000000
v 5.769548 -0.120000 27.000000
v -2.230452 -0.120000 27.000000
v 5.757901 -0.120000 27.500000
v 5.769548 -0.120000 27.000000
v -2.230452 -0.120000 27.000000
v -2.242099 -0.120000 27.500000
v 5.757901 -0.120000 27.500000
v -2.242099 -0.120000 27.500000
v 5.744396 -0.120000 28.000000
v 5.757901 -0.120000 27.500000
v -2.242099 -0.120000 27.500000
v -2.255604 -0.120000 28.000000
v 5.744396 -0.120000 28.000000
v -2.255604 -0.120000 28.000000
v 5.729050 -0.120000 28.500000
v 5.744396 -0.120000 28.000000
v -2.255604 -0.120000 28.000000
v -2.270950 -0.120000 28.500000
v 5.729050 -0.120000 28.500000
v -2.270950 -0.120000 28.500000
v 5.711877 -0.120000 29.000000
v 5.729050 -0.120000 28.500000
v -2.270950 -0.120000 28.500000
v -2.288123 -0.120000 29.000000
v 5.711877 -0.120000 29.000000
v -2.288123 -0.120000 29.000000
v 5.692896 -0.120000 29.500000
v 5.711877 -0.120000 29.000000
v -2.288123 -0.120000 29.000000
v -2.307104 -0.120000 29.500000
v 5.692896 -0.120000 29.500000
v -2.307104 -0.120000 29.500000
v 5.672127 -0.120000 30.000000
v 5.692896 -0.120000 29.500000
v -2.307104 -0.120000 29.500000
v -2.327873 -0.120000 30.000000
v 5.672127 -0.120000 30.000000
v -2.327873 -0.120000 30.000000
v 5.649593 -0.120000 30.500000
v 5.672127 -0.120000 30.000000
v -2.327873 -0.120000 30.000000
v -2.350407 -0.120000 30.500000
v 5.649593 -0.120000 30.500000
v -2.350407 -0.120000 30.500000
v 5.625316 -0.120000 31.000000
v 5.649593 -0.120000 30.500000
v -2.350407 -0.120000 30.500000
v -2.374684 -0.120000 31.000000
v 5.625316 -0.120000 31.000000
v -2.374684 -0.120000 31.000000
v 5.599322 -0.120000 31.500000
v 5.625316 -0.120000 31.000000
v -2.374684 -0.120000 31.000000
v -2.400678 -0.120000 31.500000
v 5.599322 -0.120000 31.500000
v -2.400678 -0.120000 31.500000
v 5.571639 -0.120000 32.000000
v 5.599322 -0.120000 31.500000
v -2.400678 -0.120000 31.500000
v -2.428361 -0.120000 32.000000
v 5.571639 -0.120000 32.000000
v -2.428361 -0.120000 32.000000
v 5.542297 -0.120000 32.500000
v 5.571639 -0.120000 32.000000
v -2.428361 -0.120000 32.000000
v -2.457703 -0.120000 32.500000
v 5.542297 -0.120000 32.500000
v -2.457703 -0.120000 32.500000
v 5.511325 -0.120000 33.000000
v 5.542297 -0.120000 32.500000
v -2.457703 -0.120000 32.500000
v -2.488675 -0.120000 33.000000
v 5.511325 -0.120000 33.000000
v -2.488675 -0.120000 33.000000
v 5.478757 -0.120000 33.500000
v 5.511325 -0.120000 33.000000
v -2.488675 -0.120000 33.000000
v -2.521243 -0.120000 33.500000
v 5.478757 -0.120000 33.500000
v -2.521243 -0.120000 33.500000
v 5.444628 -0.120000 34.000000
v 5.478757 -0.120000 33.500000
v -2.521243 -0.120000 33.500000
v -2.555372 -0.120000 34.000000
v 5.444628 -0.120000 34.000000
v -2.555372 -0.120000 34.000000
v 5.408973 -0.120000 34.500000
v 5.444628 -0.120000 34.000000
v -2.555372 -0.120000 34.000000
v -2.591027 -0.120000 34.500000
v 5.408973 -0.120000 34.500000
v -2.591027 -0.120000 34.500000
v 5.371829 -0.120000 35.000000
v 5.408973 -0.120000 34.500000
v -2.591027 -0.120000 34.500000
v -2.628171 -0.120000 35.000000
v 5.371829 -0.120000 35.000000
v -2.628171 -0.120000 35.000000
v 5.333237 -0.120000 35.500000
v 5.371829 -0.120000 35.000000
v -2.628171 -0.120000 35.000000
v -2.666763 -0.120000 35.500000
v 5.333237 -0.120000 35.500000
v -2.666763 -0.120000 35.500000
v 5.293237 -0.120000 36.000000
v 5.333237 -0.120000 35.500000
v -2.666763 -0.120000 35.500000
v -2.706763 -0.120000 36.000000
v 5.293237 -0.120000 36.000000
v -2.706763 -0.120000 36.000000
v 5.251870 -0.120000 36.500000
v 5.293237 -0.120000 36.000000
v -2.706763 -0.120000 36.000000
v -2.748130 -0.120000 36.500000
v 5.251870 -0.120000 36.500000
v -2.748130 -0.120000 36.500000
v 5.209182 -0.120000 37.000000
v 5.251870 -0.120000 36.500000
v -2.748130 -0.120000 36.500000
v -2.790818 -0.120000 37.000000
v 5.209182 -0.120000 37.000000
v -2.790818 -0.120000 37.000000
v 5.165217 -0.120000 37.500000
v 5.209182 -0.120000 37.000000
v -2.790818 -0.120000 37.000000
v -2.834783 -0.120000 37.500000
v 5.165217 -0.120000 37.500000
v -2.834783 -0.120000 37.500000
v 5.120020 -0.120000 38.000000
v 5.165217 -0.120000 37.500000
v -2.834783 -0.120000 37.500000
v -2.879980 -0.120000 38.000000
v 5.120020 -0.120000 38.000000
v -2.879980 -0.120000 38.000000
v 5.073641 -0.120000 38.500000
v 5.120020 -0.120000 38.000000
v -2.879980 -0.120000 38.000000
v -2.926359 -0.120000 38.500000
v 5.073641 -0.120000 38.500000
v -2.926359 -0.120000 38.500000
v 5.026128 -0.120000 39.000000
v 5.073641 -0.120000 38.500000
v -2.926359 -0.120000 38.500000
v -2.973872 -0.120000 39.000000
v 5.026128 -0.120000 39.000000
v -2.973872 -0.120000 39.000000
v 4.977532 -0.120000 39.500000
v 5.026128 -0.120000 39.000000
v -2.973872 -0.120000 39.000000
v -3.022468 -0.120000 39.500000
v 4.977532 -0.120000 39.500000
v -3.022468 -0.120000 39.500000
v 4.927902 -0.120000 40.000000
v 4.977532 -0.120000 39.500000
v -3.022468 -0.120000 39.500000
v -3.072098 -0.120000 40.000000
v 4.927902 -0.120000 40.000000
vt 0.000000 0.000000
vt 1.000000 0.500000
vt 1.000000 0.000000
vt 0.000000 0.000000
vt 0.000000 0.500000
vt 1.000000 0.500000
vt 0.000000 0.500000
vt 1.000000 1.000000
vt 1.000000 0.500000
vt 0.000000 0.500000
vt 0.000000 1.000000
vt 1.000000 1.000000
vt 0.000000 1.000000
vt 1.000000 1.500000
vt 1.000000 1.000000
vt 0.000000 1.000000
vt 0.000000 1.500000
vt 1.000000 1.500000
vt 0.000000 1.500000
vt 1.000000 2.000000
vt 1.000000 1.500000
vt 0.000000 1.500000
vt 0.000000 2.000000
vt 1.000000 2.000000
vt 0.000000 2.000000
vt 1.000000 2.500000
vt 1.000000 2.000000
vt 0.000000 2.000000
vt 0.000000 2.500000
vt 1.000000 2.500000
vt 0.000000 2.500000
vt 1.000000 3.000000
vt 1.000000 2.500000
vt 0.000000 2.500000
vt 0.000000 3.000000
vt 1.000000 3.000000
vt 0.000000 3.000000
vt 1.000000 3.500000
vt 1.000000 3.000000
vt 0.000000 3.000000
vt 0.000000 3.500000
vt 1.000000 3.500000
vt 0.000000 3.500000
vt 1.000000 4.000000
vt 1.000000 3.500000
vt 0.000000 3.500000
vt 0.000000 4.000000
vt 1.000000 4.000000
vt 0.000000 4.000000
vt 1.000000 4.500000
vt 1.000000 4.000000
vt 0.000000 4.000000
vt 0.000000 4.500000
vt 1.000000 4.500000
vt 0.000000 4.500000
vt 1.000000 5.000000
vt 1.000000 4.500000
vt 0.000000 4.500000
vt 0.000000 5.000000
vt 1.000000 5.000000
vt 0.000000 5.000000
vt 1.000000 5.500000
vt 1.000000 5.000000
vt 0.000000 5.000000
vt 0.000000 5.500000
vt 1.000000 5.500000
vt 0.000000 5.500000
vt 1.000000 6.000000
vt 1.000000 5.500000
vt 0.000000 5.500000
vt 0.000000 6.000000
vt 1.000000 6.000000
vt 0.000000 6.000000
vt 1.000000 6.500000
vt 1.000000 6.000000
vt 0.000000 6.000000
vt 0.000000 6.500000
vt 1.000000 6.500000
vt 0.000000 6.500000
vt 1.000000 7.000000
vt 1.000000 6.500000
vt 0.000000 6.500000
vt 0.000000 7.000000
vt 1.000000 7.000000
vt 0.000000 7.000000
vt 1.000000 7.500000
vt 1.000000 7.000000
vt 0.000000 7.000000
vt 0.000000 7.500000
vt 1.000000 7.500000
vt 0.000000 7.500000
vt 1.000000 8.000000
vt 1.000000 7.500000
vt 0.000000 7.500000
vt 0.000000 8.000000
vt 1.000000 8.000000
vt 0.000000 8.000000
vt 1.000000 8.500000
vt 1.000000 8.000000
vt 0.000000 8.000000
vt 0.000000 8.500000
vt 1.000000 8.500000
vt 0.000000 8.500000
vt 1.000000 9.000000
vt 1.000000 8.500000
vt 0.000000 8.500000
vt 0.000000 9.000000
vt 1.000000 9.000000
vt 0.000000 9.000000
vt 1.000000 9.500000
vt 1.000000 9.000000
vt 0.000000 9.000000
vt 0.000000 9.500000
vt 1.000000 9.500000
vt 0.000000 9.500000
vt 1.000000 10.000000
vt 1.000000 9.500000
vt 0.000000 9.500000
vt 0.000000 10.000000
vt 1.000000 10.000000
vt 0.000000 10.000000
vt 1.000000 10.500000
vt 1.000000 10.000000
vt 0.000000 10.000000
vt 0.000000 10.500000
vt 1.000000 10.500000
vt 0.000000 10.500000
vt 1.000000 11.000000
vt 1.000000 10.500000
vt 0.000000 10.500000
vt 0.000000 11.000000
vt 1.000000 11.000000
vt 0.000000 11.000000
vt 1.000000 11.500000
vt 1.000000 11.000000
vt 0.000000 11.000000
vt 0.000000 11.500000
vt 1.000000 11.500000
vt 0.000000 11.500000
vt 1.000000 12.000000
vt 1.000000 11.500000
vt 0.000000 11.500000
vt 0.000000 12.000000
vt 1.000000 12.000000
vt 0.000000 12.000000
vt 1.000000 12.500000
vt 1.000000 12.000000
vt 0.000000 12.000000
vt 0.000000 12.500000
vt 1.000000 12.500000
vt 0.000000 12.500000
vt 1.000000 13.000000
vt 1.000000 12.500000
vt 0.000000 12.500000
vt 0.000000 13.000000
vt 1.000000 13.000000
vt 0.000000 13.000000
vt 1.000000 13.500000
vt 1.000000 13.000000
vt 0.000000 13.000000
vt 0.000000 13.500000
vt 1.000000 13.500000
vt 0.000000 13.500000
vt 1.000000 14.000000
vt 1.000000 13.500000
vt 0.000000 13.500000
vt 0.000000 14.000000
vt 1.000000 14.000000
vt 0.000000 14.000000
vt 1.000000 14.500000
vt 1.000000 14.000000
vt 0.000000 14.000000
vt 0.000000 14.500000
vt 1.000000 14.500000
vt 0.000000 14.500000
vt 1.000000 15.000000
vt 1.000000 14.500000
vt 0.000000 14.500000
vt 0.000000 15.000000
vt 1.000000 15.000000
vt 0.000000 15.000000
vt 1.000000 15.500000
vt 1.000000 15.000000
vt 0.000000 15.000000
vt 0.000000 15.500000
vt 1.000000 15.500000
vt 0.000000 15.500000
vt 1.000000 16.000000
vt 1.000000 15.500000
vt 0.000000 15.500000
vt 0.000000 16.000000
vt 1.000000 16.000000
vt 0.000000 16.000000
vt 1.000000 16.500000
vt 1.000000 16.000000
vt 0.000000 16.000000
vt 0.000000 16.500000
vt 1.000000 16.500000
vt 0.000000 16.500000
vt 1.000000 17.000000
vt 1.000000 16.500000
vt 0.000000 16.500000
vt 0.000000 17.000000
vt 1.000000 17.000000
vt 0.000000 17.000000
vt 1.000000 17.500000
vt 1.000000 17.000000
vt 0.000000 17.000000
vt 0.000000 17.500000
vt 1.000000 17.500000
vt 0.000000 17.500000
vt 1.000000 18.000000
vt 1.000000 17.500000
vt 0.000000 17.500000
vt 0.000000 18.000000
vt 1.000000 18.000000
vt 0.000000 18.000000
vt 1.000000 18.500000
vt 1.000000 18.000000
vt 0.000000 18.000000
vt 0.000000 18.500000
vt 1.000000 18.500000
vt 0.000000 18.500000
vt 1.000000 19.000000
vt 1.000000 18.500000
vt 0.000000 18.500000
vt 0.000000 19.000000
vt 1.000000 19.000000
vt 0.000000 19.000000
vt 1.000000 19.500000
vt 1.000000 19.000000
vt 0.000000 19.000000
vt 0.000000 19.500000
vt 1.000000 19.500000
vt 0.000000 19.500000
vt 1.000000 20.000000
vt 1.000000 19.500000
vt 0.000000 19.500000
vt 0.000000 20.000000
vt 1.000000 20.000000
vt 0.000000 20.000000
vt 1.000000 20.500000
vt 1.000000 20.000000
vt 0.000000 20.000000
vt 0.000000 20.500000
vt 1.000000 20.500000
vt 0.000000 20.500000
vt 1.000000 21.000000
vt 1.000000 20.500000
vt 0.000000 20.500000
vt 0.000000 21.000000
vt 1.000000 21.000000
vt 0.000000 21.000000
vt 1.000000 21.500000
vt 1.000000 21.000000
vt 0.000000 21.000000
vt 0.000000 21.500000
vt 1.000000 21.500000
vt 0.000000 21.500000
vt 1.000000 22.000000
vt 1.000000 21.500000
vt 0.000000 21.500000
vt 0.000000 22.000000
vt 1.000000 22.000000
vt 0.000000 22.000000
vt 1.000000 22.500000
vt 1.000000 22.000000
vt 0.000000 22.000000
vt 0.000000 22.500000
vt 1.000000 22.500000
vt 0.000000 22.500000
vt 1.000000 23.000000
vt 1.000000 22.500000
vt 0.000000 22.500000
vt 0.000000 23.000000
vt 1.000000 23.000000
vt 0.000000 23.000000
vt 1.000000 23.500000
vt 1.000000 23.000000
vt 0.000000 23.000000
vt 0.000000 23.500000
vt 1.000000 23.500000
vt 0.000000 23.500000
vt 1.000000 24.000000
vt 1.000000 23.500000
vt 0.000000 23.500000
vt 0.000000 24.000000
vt 1.000000 24.000000
vt 0.000000 24.000000
vt 1.000000 24.500000
vt 1.000000 24.000000
vt 0.000000 24.000000
vt 0.000000 24.500000
vt 1.000000 24.500000
vt 0.000000 24.500000
vt 1.000000 25.000000
vt 1.000000 24.500000
vt 0.000000 24.500000
vt 0.000000 25.000000
vt 1.000000 25.000000
vt 0.000000 25.000000
vt 1.000000 25.500000
vt 1.000000 25.000000
vt 0.000000 25.000000
vt 0.000000 25.500000
vt 1.000000 25.500000
vt 0.000000 25.500000
vt 1.000000 26.000000
vt 1.000000 25.500000
vt 0.000000 25.500000
vt 0.000000 26.000000
vt 1.000000 26.000000
vt 0.000000 26.000000
vt 1.000000 26.500000
vt 1.000000 26.000000
vt 0.000000 26.000000
vt 0.000000 26.500000
vt 1.000000 26.500000
vt 0.000000 26.500000
vt 1.000000 27.000000
vt 1.000000 26.500000
vt 0.000000 26.500000
vt 0.000000 27.000000
vt 1.000000 27.000000
vt 0.000000 27.000000
vt 1.000000 27.500000
vt 1.000000 27.000000
vt 0.000000 27.000000
vt 0.000000 27.500000
vt 1.000000 27.500000
vt 0.000000 27.500000
vt 1.000000 28.000000
vt 1.000000 27.500000
vt 0.000000 27.500000
vt 0.000000 28.000000
vt 1.000000 28.000000
vt 0.000000 28.000000
vt 1.000000 28.500000
vt 1.000000 28.000000
vt 0.000000 28.000000
vt 0.000000 28.500000
vt 1.000000 28.500000
vt 0.000000 28.500000
vt 1.000000 29.000000
vt 1.000000 28.500000
vt 0.000000 28.500000
vt 0.000000 29.000000
vt 1.000000 29.000000
vt 0.000000 29.000000
vt 1.000000 29.500000
vt 1.000000 29.000000
vt 0.000000 29.000000
vt 0.000000 29.500000
vt 1.000000 29.500000
vt 0.000000 29.500000
vt 1.000000 30.000000
vt 1.000000 29.500000
vt 0.000000 29.500000
vt 0.000000 30.000000
vt 1.000000 30.000000
vt 0.000000 30.000000
vt 1.000000 30.500000
vt 1.000000 30.000000
vt 0.000000 30.000000
vt 0.000000 30.500000
vt 1.000000 30.500000
vt 0.000000 30.500000
vt 1.000000 31.000000
vt 1.000000 30.500000
vt 0.000000 30.500000
vt 0.000000 31.000000
vt 1.000000 31.000000
vt 0.000000 31.000000
vt 1.000000 31.500000
vt 1.000000 31.000000
vt 0.000000 31.000000
vt 0.000000 31.500000
vt 1.000000 31.500000
vt 0.000000 31.500000
vt 1.000000 32.000000
vt 1.000000 31.500000
vt 0.000000 31.500000
vt 0.000000 32.000000
vt 1.000000 32.000000
vt 0.000000 32.000000
vt 1.000000 32.500000
vt 1.000000 32.000000
vt 0.000000 32.000000
vt 0.000000 32.500000
vt 1.000000 32.500000
vt 0.000000 32.500000
vt 1.000000 33.000000
vt 1.000000 32.500000
vt 0.000000 32.500000
vt 0.000000 33.000000
vt 1.000000 33.000000
vt 0.000000 33.000000
vt 1.000000 33.500000
vt 1.000000 33.000000
vt 0.000000 33.000000
vt 0.000000 33.500000
vt 1.000000 33.500000
vt 0.000000 33.500000
vt 1.000000 34.000000
vt 1.000000 33.500000
vt 0.000000 33.500000
vt 0.000000 34.000000
vt 1.000000 34.000000
vt 0.000000 34.000000
vt 1.000000 34.500000
vt 1.000000 34.000000
vt 0.000000 34.000000
vt 0.000000 34.500000
vt 1.000000 34.500000
vt 0.000000 34.500000
vt 1.000000 35.000000
vt 1.000000 34.500000
vt 0.000000 34.500000
vt 0.000000 35.000000
vt 1.000000 35.000000
vt 0.000000 35.000000
vt 1.000000 35.500000
vt 1.000000 35.000000
vt 0.000000 35.000000
vt 0.000000 35.500000
vt 1.000000 35.500000
vt 0.000000 35.500000
vt 1.000000 36.000000
vt 1.000000 35.500000
vt 0.000000 35.500000
vt 0.000000 36.000000
vt 1.000000 36.000000
vt 0.000000 36.000000
vt 1.000000 36.500000
vt 1.000000 36.000000
vt 0.000000 36.000000
vt 0.000000 36.500000
vt 1.000000 36.500000
vt 0.000000 36.500000
vt 1.000000 37.000000
vt 1.000000 36.500000
vt 0.000000 36.500000
vt 0.000000 37.000000
vt 1.000000 37.000000
vt 0.000000 37.000000
vt 1.000000 37.500000
vt 1.000000 37.000000
vt 0.000000 37.000000
vt 0.000000 37.500000
vt 1.000000 37.500000
vt 0.000000 37.500000
vt 1.000000 38.000000
vt 1.000000 37.500000
vt 0.000000 37.500000
vt 0.000000 38.000000
vt 1.000000 38.000000
vt 0.000000 38.000000
vt 1.000000 38.500000
vt 1.000000 38.000000
vt 0.000000 38.000000
vt 0.000000 38.500000
vt 1.000000 38.500000
vt 0.000000 38.500000
vt 1.000000 39.000000
vt 1.000000 38.500000
vt 0.000000 38.500000
vt 0.000000 39.000000
vt 1.000000 39.000000
vt 0.000000 39.000000
vt 1.000000 39.500000
vt 1.000000 39.000000
vt 0.000000 39.000000
vt 0.000000 39.500000
vt 1.000000 39.500000
vt 0.000000 39.500000
vt 1.000000 40.000000
vt 1.000000 39.500000
vt 0.000000 39.500000
vt 0.000000 40.000000
vt 1.000000 40.000000
vt 0.000000 40.000000
vt 1.000000 40.500000
vt 1.000000 40.000000
vt 0.000000 40.000000
vt 0.000000 40.500000
vt 1.000000 40.500000
vt 0.000000 40.500000
vt 1.000000 41.000000
vt 1.000000 40.500000
vt 0.000000 40.500000
vt 0.000000 41.000000
vt 1.000000 41.000000
vt 0.000000 41.000000
vt 1.000000 41.500000
vt 1.000000 41.000000
vt 0.000000 41.000000
vt 0.000000 41.500000
vt 1.000000 41.500000
vt 0.000000 41.500000
vt 1.000000 42.000000
vt 1.000000 41.500000
vt 0.000000 41.500000
vt 0.000000 42.000000
vt 1.000000 42.000000
vt 0.000000 42.000000
vt 1.000000 42.500000
vt 1.000000 42.000000
vt 0.000000 42.000000
vt 0.000000 42.500000
vt 1.000000 42.500000
vt 0.000000 42.500000
vt 1.000000 43.000000
vt 1.000000 42.500000
vt 0.000000 42.500000
vt 0.000000 43.000000
vt 1.000000 43.000000
vt 0.000000 43.000000
vt 1.000000 43.500000
vt 1.000000 43.000000
vt 0.000000 43.000000
vt 0.000000 43.500000
vt 1.000000 43.500000
vt 0.000000 43.500000
vt 1.000000 44.000000
vt 1.000000 43.500000
vt 0.000000 43.500000
vt 0.000000 44.000000
vt 1.000000 44.000000
vt 0.000000 44.000000
vt 1.000000 44.500000
vt 1.000000 44.000000
vt 0.000000 44.000000
vt 0.000000 44.500000
vt 1.000000 44.500000
vt 0.000000 44.500000
vt 1.000000 45.000000
vt 1.000000 44.500000
vt 0.000000 44.500000
vt 0.000000 45.000000
vt 1.000000 45.000000
vt 0.000000 45.000000
vt 1.000000 45.500000
vt 1.000000 45.000000
vt 0.000000 45.000000
vt 0.000000 45.500000
vt 1.000000 45.500000
vt 0.000000 45.500000
vt 1.000000 46.000000
vt 1.000000 45.500000
vt 0.000000 45.500000
vt 0.000000 46.000000
vt 1.000000 46.000000
vt 0.000000 46.000000
vt 1.000000 46.500000
vt 1.000000 46.000000
vt 0.000000 46.000000
vt 0.000000 46.500000
vt 1.000000 46.500000
vt 0.000000 46.500000
vt 1.000000 47.000000
vt 1.000000 46.500000
vt 0.000000 46.500000
vt 0.000000 47.000000
vt 1.000000 47.000000
vt 0.000000 47.000000
vt 1.000000 47.500000
vt 1.000000 47.000000
vt 0.000000 47.000000
vt 0.000000 47.500000
vt 1.000000 47.500000
vt 0.000000 47.500000
vt 1.000000 48.000000
vt 1.000000 47.500000
vt 0.000000 47.500000
vt 0.000000 48.000000
vt 1.000000 48.000000
vt 0.000000 48.000000
vt 1.000000 48.500000
vt 1.000000 48.000000
vt 0.000000 48.000000
vt 0.000000 48.500000
vt 1.000000 48.500000
vt 0.000000 48.500000
vt 1.000000 49.000000
vt 1.000000 48.500000
vt 0.000000 48.500000
vt 0.000000 49.000000
vt 1.000000 49.000000
vt 0.000000 49.000000
vt 1.000000 49.500000
vt 1.000000 49.000000
vt 0.000000 49.000000
vt 0.000000 49.500000
vt 1.000000 49.500000
vt 0.000000 49.500000
vt 1.000000 50.000000
vt 1.000000 49.500000
vt 0.000000 49.500000
vt 0.000000 50.000000
vt 1.000000 50.000000
vt 0.000000 50.000000
vt 1.000000 50.500000
vt 1.000000 50.000000
vt 0.000000 50.000000
vt 0.000000 50.500000
vt 1.000000 50.500000
vt 0.000000 50.500000
vt 1.000000 51.000000
vt 1.000000 50.500000
vt 0.000000 50.500000
vt 0.000000 51.000000
vt 1.000000 51.000000
vt 0.000000 51.000000
vt 1.000000 51.500000
vt 1.000000 51.000000
vt 0.000000 51.000000
vt 0.000000 51.500000
vt 1.000000 51.500000
vt 0.000000 51.500000
vt 1.000000 52.000000
vt 1.000000 51.500000
vt 0.000000 51.500000
vt 0.000000 52.000000
vt 1.000000 52.000000
vt 0.000000 52.000000
vt 1.000000 52.500000
vt 1.000000 52.000000
vt 0.000000 52.000000
vt 0.000000 52.500000
vt 1.000000 52.500000
vt 0.000000 52.500000
vt 1.000000 53.000000
vt 1.000000 52.500000
vt 0.000000 52.500000
vt 0.000000 53.000000
vt 1.000000 53.000000
vt 0.000000 53.000000
vt 1.000000 53.500000
vt 1.000000 53.000000
vt 0.000000 53.000000
vt 0.000000 53.500000
vt 1.000000 53.500000
vt 0.000000 53.500000
vt 1.000000 54.000000
vt 1.000000 53.500000
vt 0.000000 53.500000
vt 0.000000 54.000000
vt 1.000000 54.000000
vt 0.000000 54.000000
vt 1.000000 54.500000
vt 1.000000 54.000000
vt 0.000000 54.000000
vt 0.000000 54.500000
vt 1.000000 54.500000
vt 0.000000 54.500000
vt 1.000000 55.000000
vt 1.000000 54.500000
vt 0.000000 54.500000
vt 0.000000 55.000000
vt 1.000000 55.000000
vt 0.000000 55.000000
vt 1.000000 55.500000
vt 1.000000 55.000000
vt 0.000000 55.000000
vt 0.000000 55.500000
vt 1.000000 55.500000
vt 0.000000 55.500000
vt 1.000000 56.000000
vt 1.000000 55.500000
vt 0.000000 55.500000
vt 0.000000 56.000000
vt 1.000000 56.000000
vt 0.000000 56.000000
vt 1.000000 56.500000
vt 1.000000 56.000000
vt 0.000000 56.000000
vt 0.000000 56.500000
vt 1.000000 56.500000
vt 0.000000 56.500000
vt 1.000000 57.000000
vt 1.000000 56.500000
vt 0.000000 56.500000
vt 0.000000 57.000000
vt 1.000000 57.000000
vt 0.000000 57.000000
vt 1.000000 57.500000
vt 1.000000 57.000000
vt 0.000000 57.000000
vt 0.000000 57.500000
vt 1.000000 57.500000
vt 0.000000 57.500000
vt 1.000000 58.000000
vt 1.000000 57.500000
vt 0.000000 57.500000
vt 0.000000 58.000000
vt 1.000000 58.000000
vt 0.000000 58.000000
vt 1.000000 58.500000
vt 1.000000 58.000000
vt 0.000000 58.000000
vt 0.000000 58.500000
vt 1.000000 58.500000
vt 0.000000 58.500000
vt 1.000000 59.000000
vt 1.000000 58.500000
vt 0.000000 58.500000
vt 0.000000 59.000000
vt 1.000000 59.000000
vt 0.000000 59.000000
vt 1.000000 59.500000
vt 1.000000 59.000000
vt 0.000000 59.000000
vt 0.000000 59.500000
vt 1.000000 59.500000
vt 0.000000 59.500000
vt 1.000000 60.000000
vt 1.000000 59.500000
vt 0.000000 59.500000
vt 0.000000 60.000000
vt 1.000000 60.000000
vt 0.000000 60.000000
vt 1.000000 60.500000
vt 1.000000 60.000000
vt 0.000000 60.000000
vt 0.000000 60.500000
vt 1.000000 60.500000
vt 0.000000 60.500000
vt 1.000000 61.000000
vt 1.000000 60.500000
vt 0.000000 60.500000
vt 0.000000 61.000000
vt 1.000000 61.000000
vt 0.000000 61.000000
vt 1.000000 61.500000
vt 1.000000 61.000000
vt 0.000000 61.000000
vt 0.000000 61.500000
vt 1.000000 61.500000
vt 0.000000 61.500000
vt 1.000000 62.000000
vt 1.000000 61.500000
vt 0.000000 61.500000
vt 0.000000 62.000000
vt 1.000000 62.000000
vt 0.000000 62.000000
vt 1.000000 62.500000
vt 1.000000 62.000000
vt 0.000000 62.000000
vt 0.000000 62.500000
vt 1.000000 62.500000
vt 0.000000 62.500000
vt 1.000000 63.000000
vt 1.000000 62.500000
vt 0.000000 62.500000
vt 0.000000 63.000000
vt 1.000000 63.000000
vt 0.000000 63.000000
vt 1.000000 63.500000
vt 1.000000 63.000000
vt 0.000000 63.000000
vt 0.000000 63.500000
vt 1.000000 63.500000
vt 0.000000 63.500000
vt 1.000000 64.000000
vt 1.000000 63.500000
vt 0.000000 63.500000
vt 0.000000 64.000000
vt 1.000000 64.000000
vt 0.000000 64.000000
vt 1.000000 64.500000
vt 1.000000 64.000000
vt 0.000000 64.000000
vt 0.000000 64.500000
vt 1.000000 64.500000
vt 0.000000 64.500000
vt 1.000000 65.000000
vt 1.000000 64.500000
vt 0.000000 64.500000
vt 0.000000 65.000000
vt 1.000000 65.000000
vt 0.000000 65.000000
vt 1.000000 65.500000
vt 1.000000 65.000000
vt 0.000000 65.000000
vt 0.000000 65.500000
vt 1.000000 65.500000
vt 0.000000 65.500000
vt 1.000000 66.000000
vt 1.000000 65.500000
vt 0.000000 65.500000
vt 0.000000 66.000000
vt 1.000000 66.000000
vt 0.000000 66.000000
vt 1.000000 66.500000
vt 1.000000 66.000000
vt 0.000000 66.000000
vt 0.000000 66.500000
vt 1.000000 66.500000
vt 0.000000 66.500000
vt 1.000000 67.000000
vt 1.000000 66.500000
vt 0.000000 66.500000
vt 0.000000 67.000000
vt 1.000000 67.000000
vt 0.000000 67.000000
vt 1.000000 67.500000
vt 1.000000 67.000000
vt 0.000000 67.000000
vt 0.000000 67.500000
vt 1.000000 67.500000
vt 0.000000 67.500000
vt 1.000000 68.000000
vt 1.000000 67.500000
vt 0.000000 67.500000
vt 0.000000 68.000000
vt 1.000000 68.000000
vt 0.000000 68.000000
vt 1.000000 68.500000
vt 1.000000 68.000000
vt 0.000000 68.000000
vt 0.000000 68.500000
vt 1.000000 68.500000
vt 0.000000 68.500000
vt 1.000000 69.000000
vt 1.000000 68.500000
vt 0.000000 68.500000
vt 0.000000 69.000000
vt 1.000000 69.000000
vt 0.000000 69.000000
vt 1.000000 69.500000
vt 1.000000 69.000000
vt 0.000000 69.000000
vt 0.000000 69.500000
vt 1.000000 69.500000
vt 0.000000 69.500000
vt 1.000000 70.000000
vt 1.000000 69.500000
vt 0.000000 69.500000
vt 0.000000 70.000000
vt 1.000000 70.000000
vt 0.000000 70.000000
vt 1.000000 70.500000
vt 1.000000 70.000000
vt 0.000000 70.000000
vt 0.000000 70.500000
vt 1.000000 70.500000
vt 0.000000 70.500000
vt 1.000000 71.000000
vt 1.000000 70.500000
vt 0.000000 70.500000
vt 0.000000 71.000000
vt 1.000000 71.000000
vt 0.000000 71.000000
vt 1.000000 71.500000
vt 1.000000 71.000000
vt 0.000000 71.000000
vt 0.000000 71.500000
vt 1.000000 71.500000
vt 0.000000 71.500000
vt 1.000000 72.000000
vt 1.000000 71.500000
vt 0.000000 71.500000
vt 0.000000 72.000000
vt 1.000000 72.000000
vt 0.000000 72.000000
vt 1.000000 72.500000
vt 1.000000 72.000000
vt 0.000000 72.000000
vt 0.000000 72.500000
vt 1.000000 72.500000
vt 0.000000 72.500000
vt 1.000000 73.000000
vt 1.000000 72.500000
vt 0.000000 72.500000
vt 0.000000 73.000000
vt 1.000000 73.000000
vt 0.000000 73.000000
vt 1.000000 73.500000
vt 1.000000 73.000000
vt 0.000000 73.000000
vt 0.000000 73.500000
vt 1.000000 73.500000
vt 0.000000 73.500000
vt 1.000000 74.000000
vt 1.000000 73.500000
vt 0.000000 73.500000
vt 0.000000 74.000000
vt 1.000000 74.000000
vt 0.000000 74.000000
vt 1.000000 74.500000
vt 1.000000 74.000000
vt 0.000000 74.000000
vt 0.000000 74.500000
vt 1.000000 74.500000
vt 0.000000 74.500000
vt 1.000000 75.000000
vt 1.000000 74.500000
vt 0.000000 74.500000
vt 0.000000 75.000000
vt 1.000000 75.000000
vt 0.000000 75.000000
vt 1.000000 75.500000
vt 1.000000 75.000000
vt 0.000000 75.000000
vt 0.000000 75.500000
vt 1.000000 75.500000
vt 0.000000 75.500000
vt 1.000000 76.000000
vt 1.000000 75.500000
vt 0.000000 75.500000
vt 0.000000 76.000000
vt 1.000000 76.000000
vt 0.000000 76.000000
vt 1.000000 76.500000
vt 1.000000 76.000000
vt 0.000000 76.000000
vt 0.000000 76.500000
vt 1.000000 76.500000
vt 0.000000 76.500000
vt 1.000000 77.000000
vt 1.000000 76.500000
vt 0.000000 76.500000
vt 0.000000 77.000000
vt 1.000000 77.000000
vt 0.000000 77.000000
vt 1.000000 77.500000
vt 1.000000 77.000000
vt 0.000000 77.000000
vt 0.000000 77.500000
vt 1.000000 77.500000
vt 0.000000 77.500000
vt 1.000000 78.000000
vt 1.000000 77.500000
vt 0.000000 77.500000
vt 0.000000 78.000000
vt 1.000000 78.000000
vt 0.000000 78.000000
vt 1.000000 78.500000
vt 1.000000 78.000000
vt 0.000000 78.000000
vt 0.000000 78.500000
vt 1.000000 78.500000
vt 0.000000 78.500000
vt 1.000000 79.000000
vt 1.000000 78.500000
vt 0.000000 78.500000
vt 0.000000 79.000000
vt 1.000000 79.000000
vt 0.000000 79.000000
vt 1.000000 79.500000
vt 1.000000 79.000000
vt 0.000000 79.000000
vt 0.000000 79.500000
vt 1.000000 79.500000
vt 0.000000 79.500000
vt 1.000000 80.000000
vt 1.000000 79.500000
vt 0.000000 79.500000
vt 0.000000 80.000000
vt 1.000000 80.000000
vn 0 1 0
f 1/1/1 2/2/1 3/3/1
f 4/4/1 5/5/1 6/6/1
f 7/7/1 8/8/1 9/9/1
f 10/10/1 11/11/1 12/12/1
f 13/13/1 14/14/1 15/15/1
f 16/16/1 17/17/1 18/18/1
f 19/19/1 20/20/1 21/21/1
f 22/22/1 23/23/1 24/24/1
f 25/25/1 26/26/1 27/27/1
f 28/28/1 29/29/1 30/30/1
f 31/31/1 32/32/1 33/33/1
f 34/34/1 35/35/1 36/36/1
f 37/37/1 38/38/1 39/39/1
f 40/40/1 41/41/1 42/42/1
f 43/43/1 44/44/1 45/45/1
f 46/46/1 47/47/1 48/48/1
f 49/49/1 50/50/1 51/51/1
f 52/52/1 53/53/1 54/54/1
f 55/55/1 56/56/1 57/57/1
f 58/58/1 59/59/1 60/60/1
f 61/61/1 62/62/1 63/63/1
f 64/64/1 65/65/1 66/66/1
f 67/67/1 68/68/1 69/69/1
f 70/70/1 71/71/1 72/72/1
f 73/73/1 74/74/1 75/75/1
f 76/76/1 77/77/1 78/78/1
f 79/79/1 80/80/1 81/81/1
f 82/82/1 83/83/1 84/84/1
f 85/85/1 86/86/1 87/87/1
f 88/88/1 89/89/1 90/90/1
f 91/91/1 92/92/1 93/93/1
f 94/94/1 95/95/1 96/96/1
f 97/97/1 98/98/1 99/99/1
f 100/100/1 101/101/1 102/102/1
f 103/103/1 104/104/1 105/105/1
f 106/106/1 107/107/1 108/108/1
f 109/109/1 110/110/1 111/111/1
f 112/112/1 113/113/1 114/114/1
f 115/115/1 116/116/1 117/117/1
f 118/118/1 119/119/1 120/120/1
f 121/121/1 122/122/1 123/123/1
f 124/124/1 125/125/1 126/126/1
f 127/127/1 128/128/1 129/129/1
f 130/130/1 131/131/1 132/132/1
f 133/133/1 134/134/1 135/135/1
f 136/136/1 137/137/1 138/138/1
f 139/139/1 140/140/1 141/141/1
f 142/142/1 143/143/1 144/144/1
f 145/145/1 146/146/1 147/147/1
f 148/148/1 149/149/1 150/150/1
f 151/151/1 152/152/1 153/153/1
f 154/154/1 155/155/1 156/156/1
f 157/157/1 158/158/1 159/159/1
f 160/160/1 161/161/1 162/162/1
f 163/163/1 164/164/1 165/165/1
f 166/166/1 167/167/1 168/168/1
f 169/169/1 170/170/1 171/171/1
f 172/172/1 173/173/1 174/174/1
f 175/175/1 176/176/1 177/177/1
f 178/178/1 179/179/1 180/180/1
f 181/181/1 182/182/1 183/183/1
f 184/184/1 185/185/1 186/186/1
f 187/187/1 188/188/1 189/189/1
f 190/190/1 191/191/1 192/192/1
f 193/193/1 194/194/1 195/195/1
f 196/196/1 197/197/1 198/198/1
f 199/199/1 200/200/1 201/201/1
f 202/202/1 203/203/1 204/204/1
f 205/205/1 206/206/1 207/207/1
f 208/208/1 209/209/1 210/210/1
f 211/211/1 212/212/1 213/213/1
f 214/214/1 215/215/1 216/216/1
f 217/217/1 218/218/1 219/219/1
f 220/220/1 221/221/1 222/222/1
f 223/223/1 224/224/1 225/225/1
f 226/226/1 227/227/1 228/228/1
f 229/229/1 230/230/1 231/231/1
f 232/232/1 233/233/1 234/234/1
f 235/235/1 236/236/1 237/237/1
f 238/238/1 239/239/1 240/240/1
f 241/241/1 242/242/1 243/243/1
f 244/244/1 245/245/1 246/246/1
f 247/247/1 248/248/1 249/249/1
f 250/250/1 251/251/1 252/252/1
f 253/253/1 254/254/1 255/255/1
f 256/256/1 257/257/1 258/258/1
f 259/259/1 260/260/1 261/261/1
f 262/262/1 263/263/1 264/264/1
f 265/265/1 266/266/1 267/267/1
f 268/268/1 269/269/1 270/270/1
f 271/271/1 272/272/1 273/273/1
f 274/274/1 275/275/1 276/276/1
f 277/277/1 278/278/1 279/279/1
f 280/280/1 281/281/1 282/282/1
f 283/283/1 284/284/1 285/285/1
f 286/286/1 287/287/1 288/288/1
f 289/289/1 290/290/1 291/291/1
f 292/292/1 293/293/1 294/294/1
f 295/295/1 296/296/1 297/297/1
f 298/298/1 299/299/1 300/300/1
f 301/301/1 302/302/1 303/303/1
f 304/304/1 305/305/1 306/306/1
f 307/307/1 308/308/1 309/309/1
f 310/310/1 311/311/1 312/312/1
f 313/313/1 314/314/1 315/315/1
f 316/316/1 317/317/1 318/318/1
f 319/319/1 320/320/1 321/321/1
f 322/322/1 323/323/1 324/324/1
f 325/325/1 326/326/1 327/327/1
f 328/328/1 329/329/1 330/330/1
f 331/331/1 332/332/1 333/333/1
f 334/334/1 335/335/1 336/336/1
f 337/337/1 338/338/1 339/339/1
f 340/340/1 341/341/1 342/342/1
f 343/343/1 344/344/1 345/345/1
f 346/346/1 347/347/1 348/348/1
f 349/349/1 350/350/1 351/351/1
f 352/352/1 353/353/1 354/354/1
f 355/355/1 356/356/1 357/357/1
f 358/358/1 359/359/1 360/360/1
f 361/361/1 362/362/1 363/363/1
f 364/364/1 365/365/1 366/366/1
f 367/367/1 368/368/1 369/369/1
f 370/370/1 371/371/1 372/372/1
f 373/373/1 374/374/1 375/375/1
f 376/376/1 377/377/1 378/378/1
f 379/379/1 380/380/1 381/381/1
f 382/382/1 383/383/1 384/384/1
f 385/385/1 386/386/1 387/387/1
f 388/388/1 389/389/1 390/390/1
f 391/391/1 392/392/1 393/393/1
f 394/394/1 395/395/1 396/396/1
f 397/397/1 398/398/1 399/399/1
f 400/400/1 401/401/1 402/402/1
f 403/403/1 404/404/1 405/405/1
f 406/406/1 407/407/1 408/408/1
f 409/409/1 410/410/1 411/411/1
f 412/412/1 413/413/1 414/414/1
f 415/415/1 416/416/1 417/417/1
f 418/418/1 419/419/1 420/420/1
f 421/421/1 422/422/1 423/423/1
f 424/424/1 425/425/1 426/426/1
f 427/427/1 428/428/1 429/429/1
f 430/430/1 431/431/1 432/432/1
f 433/433/1 434/434/1 435/435/1
f 436/436/1 437/437/1 438/438/1
f 439/439/1 440/440/1 441/441/1
f 442/442/1 443/443/1 444/444/1
f 445/445/1 446/446/1 447/447/1
f 448/448/1 449/449/1 450/450/1
f 451/451/1 452/452/1 453/453/1
f 454/454/1 455/455/1 456/456/1
f 457/457/1 458/458/1 459/459/1
f 460/460/1 461/461/1 462/462/1
f 463/463/1 464/464/1 465/465/1
f 466/466/1 467/467/1 468/468/1
f 469/469/1 470/470/1 471/471/1
f 472/472/1 473/473/1 474/474/1
f 475/475/1 476/476/1 477/477/1
f 478/478/1 479/479/1 480/480/1
f 481/481/1 482/482/1 483/483/1
f 484/484/1 485/485/1 486/486/1
f 487/487/1 488/488/1 489/489/1
f 490/490/1 491/491/1 492/492/1
f 493/493/1 494/494/1 495/495/1
f 496/496/1 497/497/1 498/498/1
f 499/499/1 500/500/1 501/501/1
f 502/502/1 503/503/1 504/504/1
f 505/505/1 506/506/1 507/507/1
f 508/508/1 509/509/1 510/510/1
f 511/511/1 512/512/1 513/513/1
f 514/514/1 515/515/1 516/516/1
f 517/517/1 518/518/1 519/519/1
f 520/520/1 521/521/1 522/522/1
f 523/523/1 524/524/1 525/525/1
f 526/526/1 527/527/1 528/528/1
f 529/529/1 530/530/1 531/531/1
f 532/532/1 533/533/1 534/534/1
f 535/535/1 536/536/1 537/537/1
f 538/538/1 539/539/1 540/540/1
f 541/541/1 542/542/1 543/543/1
f 544/544/1 545/545/1 546/546/1
f 547/547/1 548/548/1 549/549/1
f 550/550/1 551/551/1 552/552/1
f 553/553/1 554/554/1 555/555/1
f 556/556/1 557/557/1 558/558/1
f 559/559/1 560/560/1 561/561/1
f 562/562/1 563/563/1 564/564/1
f 565/565/1 566/566/1 567/567/1
f 568/568/1 569/569/1 570/570/1
f 571/571/1 572/572/1 573/573/1
f 574/574/1 575/575/1 576/576/1
f 577/577/1 578/578/1 579/579/1
f 580/580/1 581/581/1 582/582/1
f 583/583/1 584/584/1 585/585/1
f 586/586/1 587/587/1 588/588/1
f 589/589/1 590/590/1 591/591/1
f 592/592/1 593/593/1 594/594/1
f 595/595/1 596/596/1 597/597/1
f 598/598/1 599/599/1 600/600/1
f 601/601/1 602/602/1 603/603/1
f 604/604/1 605/605/1 606/606/1
f 607/607/1 608/608/1 609/609/1
f 610/610/1 611/611/1 612/612/1
f 613/613/1 614/614/1 615/615/1
f 616/616/1 617/617/1 618/618/1
f 619/619/1 620/620/1 621/621/1
f 622/622/1 623/623/1 624/624/1
f 625/625/1 626/626/1 627/627/1
f 628/628/1 629/629/1 630/630/1
f 631/631/1 632/632/1 633/633/1
f 634/634/1 635/635/1 636/636/1
f 637/637/1 638/638/1 639/639/1
f 640/640/1 641/641/1 642/642/1
f 643/643/1 644/644/1 645/645/1
f 646/646/1 647/647/1 648/648/1
f 649/649/1 650/650/1 651/651/1
f 652/652/1 653/653/1 654/654/1
f 655/655/1 656/656/1 657/657/1
f 658/658/1 659/659/1 660/660/1
f 661/661/1 662/662/1 663/663/1
f 664/664/1 665/665/1 666/666/1
f 667/667/1 668/668/1 669/669/1
f 670/670/1 671/671/1 672/672/1
f 673/673/1 674/674/1 675/675/1
f 676/676/1 677/677/1 678/678/1
f 679/679/1 680/680/1 681/681/1
f 682/682/1 683/683/1 684/684/1
f 685/685/1 686/686/1 687/687/1
f 688/688/1 689/689/1 690/690/1
f 691/691/1 692/692/1 693/693/1
f 694/694/1 695/695/1 696/696/1
f 697/697/1 698/698/1 699/699/1
f 700/700/1 701/701/1 702/702/1
f 703/703/1 704/704/1 705/705/1
f 706/706/1 707/707/1 708/708/1
f 709/709/1 710/710/1 711/711/1
f 712/712/1 713/713/1 714/714/1
f 715/715/1 716/716/1 717/717/1
f 718/718/1 719/719/1 720/720/1
f 721/721/1 722/722/1 723/723/1
f 724/724/1 725/725/1 726/726/1
f 727/727/1 728/728/1 729/729/1
f 730/730/1 731/731/1 732/732/1
f 733/733/1 734/734/1 735/735/1
f 736/736/1 737/737/1 738/738/1
f 739/739/1 740/740/1 741/741/1
f 742/742/1 743/743/1 744/744/1
f 745/745/1 746/746/1 747/747/1
f 748/748/1 749/749/1 750/750/1
f 751/751/1 752/752/1 753/753/1
f 754/754/1 755/755/1 756/756/1
f 757/757/1 758/758/1 759/759/1
f 760/760/1 761/761/1 762/762/1
f 763/763/1 764/764/1 765/765/1
f 766/766/1 767/767/1 768/768/1
f 769/769/1 770/770/1 771/771/1
f 772/772/1 773/773/1 774/774/1
f 775/775/1 776/776/1 777/777/1
f 778/778/1 779/779/1 780/780/1
f 781/781/1 782/782/1 783/783/1
f 784/784/1 785/785/1 786/786/1
f 787/787/1 788/788/1 789/789/1
f 790/790/1 791/791/1 792/792/1
f 793/793/1 794/794/1 795/795/1
f 796/796/1 797/797/1 798/798/1
f 799/799/1 800/800/1 801/801/1
f 802/802/1 803/803/1 804/804/1
f 805/805/1 806/806/1 807/807/1
f 808/808/1 809/809/1 810/810/1
f 811/811/1 812/812/1 813/813/1
f 814/814/1 815/815/1 816/816/1
f 817/817/1 818/818/1 819/819/1
f 820/820/1 821/821/1 822/822/1
f 823/823/1 824/824/1 825/825/1
f 826/826/1 827/827/1 828/828/1
f 829/829/1 830/830/1 831/831/1
f 832/832/1 833/833/1 834/834/1
f 835/835/1 836/836/1 837/837/1
f 838/838/1 839/839/1 840/840/1
f 841/841/1 842/842/1 843/843/1
f 844/844/1 845/845/1 846/846/1
f 847/847/1 848/848/1 849/849/1
f 850/850/1 851/851/1 852/852/1
f 853/853/1 854/854/1 855/855/1
f 856/856/1 857/857/1 858/858/1
f 859/859/1 860/860/1 861/861/1
f 862/862/1 863/863/1 864/864/1
f 865/865/1 866/866/1 867/867/1
f 868/868/1 869/869/1 870/870/1
f 871/871/1 872/872/1 873/873/1
f 874/874/1 875/875/1 876/876/1
f 877/877/1 878/878/1 879/879/1
f 880/880/1 881/881/1 882/882/1
f 883/883/1 884/884/1 885/885/1
f 886/886/1 887/887/1 888/888/1
f 889/889/1 890/890/1 891/891/1
f 892/892/1 893/893/1 894/894/1
f 895/895/1 896/896/1 897/897/1
f 898/898/1 899/899/1 900/900/1
f 901/901/1 902/902/1 903/903/1
f 904/904/1 905/905/1 906/906/1
f 907/907/1 908/908/1 909/909/1
f 910/910/1 911/911/1 912/912/1
f 913/913/1 914/914/1 915/915/1
f 916/916/1 917/917/1 918/918/1
f 919/919/1 920/920/1 921/921/1
f 922/922/1 923/923/1 924/924/1
f 925/925/1 926/926/1 927/927/1
f 928/928/1 929/929/1 930/930/1
f 931/931/1 932/932/1 933/933/1
f 934/934/1 935/935/1 936/936/1
f 937/937/1 938/938/1 939/939/1
f 940/940/1 941/941/1 942/942/1
f 943/943/1 944/944/1 945/945/1
f 946/946/1 947/947/1 948/948/1
f 949/949/1 950/950/1 951/951/1
f 952/952/1 953/953/1 954/954/1
f 955/955/1 956/956/1 957/957/1
f 958/958/1 959/959/1 960/960/1
